<svg width="18" height="19" class="svg-icon-gray" viewBox="0 0 18 19" fill="none" xmlns="http://www.w3.org/2000/svg">
<g id="directions_boat" clip-path="url(#clip0_784_29609)">
<path id="Vector" d="M9.75 2.75V3.5H8.25V2.75H9.75ZM9 8.0825L13.035 9.41L14.8275 9.995L13.9875 12.9725C13.5825 12.7475 13.2825 12.44 13.1325 12.2675L12 10.97L10.8675 12.26C10.6125 12.56 9.9075 13.25 9 13.25C8.0925 13.25 7.3875 12.56 7.1325 12.26L6 10.97L4.8675 12.26C4.7175 12.4325 4.4175 12.7325 4.0125 12.9575L3.165 9.9875L4.965 9.395L9 8.0825ZM11.25 1.25H6.75V3.5H4.5C3.675 3.5 3 4.175 3 5V8.465L2.0325 8.78C1.8375 8.84 1.6725 8.975 1.5825 9.155C1.4925 9.335 1.47 9.545 1.5375 9.74L2.9625 14.75H3C4.2 14.75 5.265 14.09 6 13.25C6.735 14.09 7.8 14.75 9 14.75C10.2 14.75 11.265 14.09 12 13.25C12.735 14.09 13.8 14.75 15 14.75H15.0375L16.455 9.74C16.515 9.545 16.5 9.335 16.41 9.155C16.32 8.975 16.155 8.84 15.96 8.78L15 8.465V5C15 4.175 14.325 3.5 13.5 3.5H11.25V1.25ZM4.5 7.9775V5H13.5V7.9775L9 6.5L4.5 7.9775ZM12 15.26C11.085 15.8975 10.0425 16.22 9 16.22C7.9575 16.22 6.915 15.8975 6 15.26C5.085 15.8975 4.0425 16.25 3 16.25H1.5V17.75H3C4.035 17.75 5.055 17.4875 6 17.0075C6.945 17.4875 7.9725 17.735 9 17.735C10.0275 17.735 11.055 17.495 12 17.0075C12.945 17.495 13.965 17.75 15 17.75H16.5V16.25H15C13.9575 16.25 12.915 15.8975 12 15.26Z"/>
</g>
<defs>
<clipPath id="clip0_784_29609">
<rect width="18" height="18" fill="white" transform="translate(0 0.5)"/>
</clipPath>
</defs>
</svg>
