<svg width="18" height="19" class="svg-icon-gray" viewBox="0 0 18 19" fill="none" xmlns="http://www.w3.org/2000/svg">
<g id="train" clip-path="url(#clip0_784_29627)">
<path id="Vector" d="M6.375 12.5C6.99632 12.5 7.5 11.9963 7.5 11.375C7.5 10.7537 6.99632 10.25 6.375 10.25C5.75368 10.25 5.25 10.7537 5.25 11.375C5.25 11.9963 5.75368 12.5 6.375 12.5Z"/>
<path id="Vector_2" d="M11.625 12.5C12.2463 12.5 12.75 11.9963 12.75 11.375C12.75 10.7537 12.2463 10.25 11.625 10.25C11.0037 10.25 10.5 10.7537 10.5 11.375C10.5 11.9963 11.0037 12.5 11.625 12.5Z"/>
<path id="Vector_3" d="M9 2C6 2 3 2.375 3 5V12.125C3 13.5725 4.1775 14.75 5.625 14.75L4.5 15.875V16.25H6L7.5 14.75H10.5L12 16.25H13.5V15.875L12.375 14.75C13.8225 14.75 15 13.5725 15 12.125V5C15 2.375 12 2 9 2ZM9 3.5C11.6325 3.5 12.72 3.86 13.1775 4.25H4.8225C5.28 3.86 6.3675 3.5 9 3.5ZM4.5 5.75H8.25V8H4.5V5.75ZM13.5 12.125C13.5 12.7475 12.9975 13.25 12.375 13.25H5.625C5.0025 13.25 4.5 12.7475 4.5 12.125V9.5H13.5V12.125ZM13.5 8H9.75V5.75H13.5V8Z"/>
</g>
<defs>
<clipPath id="clip0_784_29627">
<rect width="18" height="18" fill="white" transform="translate(0 0.5)"/>
</clipPath>
</defs>
</svg>
