<svg width="18" height="19" class="svg-icon-gray" viewBox="0 0 18 19" fill="none" xmlns="http://www.w3.org/2000/svg">
<g id="local_shipping" clip-path="url(#clip0_784_29615)">
<path id="Vector" d="M15 6.5H12.75V3.5H2.25C1.425 3.5 0.75 4.175 0.75 5V13.25H2.25C2.25 14.495 3.255 15.5 4.5 15.5C5.745 15.5 6.75 14.495 6.75 13.25H11.25C11.25 14.495 12.255 15.5 13.5 15.5C14.745 15.5 15.75 14.495 15.75 13.25H17.25V9.5L15 6.5ZM14.625 7.625L16.095 9.5H12.75V7.625H14.625ZM4.5 14C4.0875 14 3.75 13.6625 3.75 13.25C3.75 12.8375 4.0875 12.5 4.5 12.5C4.9125 12.5 5.25 12.8375 5.25 13.25C5.25 13.6625 4.9125 14 4.5 14ZM6.165 11.75C5.7525 11.2925 5.1675 11 4.5 11C3.8325 11 3.2475 11.2925 2.835 11.75H2.25V5H11.25V11.75H6.165ZM13.5 14C13.0875 14 12.75 13.6625 12.75 13.25C12.75 12.8375 13.0875 12.5 13.5 12.5C13.9125 12.5 14.25 12.8375 14.25 13.25C14.25 13.6625 13.9125 14 13.5 14Z"/>
</g>
<defs>
<clipPath id="clip0_784_29615">
<rect width="18" height="18" fill="white" transform="translate(0 0.5)"/>
</clipPath>
</defs>
</svg>
