<svg width="24" height="25" class="svg-menu-blue" viewBox="0 0 24 25" fill="none" xmlns="http://www.w3.org/2000/svg">
<g clip-path="url(#clip0_6087_7031)">
<path d="M21 5.5C19.89 5.15 18.67 5 17.5 5C15.55 5 13.45 5.4 12 6.5C10.55 5.4 8.45 5 6.5 5C4.55 5 2.45 5.4 1 6.5V21.15C1 21.4 1.25 21.65 1.5 21.65C1.6 21.65 1.65 21.6 1.75 21.6C3.1 20.95 5.05 20.5 6.5 20.5C8.45 20.5 10.55 20.9 12 22C13.35 21.15 15.8 20.5 17.5 20.5C19.15 20.5 20.85 20.8 22.25 21.55C22.35 21.6 22.4 21.6 22.5 21.6C22.75 21.6 23 21.35 23 21.1V6.5C22.4 6.05 21.75 5.75 21 5.5ZM21 19C19.9 18.65 18.7 18.5 17.5 18.5C15.8 18.5 13.35 19.15 12 20V8.5C13.35 7.65 15.8 7 17.5 7C18.7 7 19.9 7.15 21 7.5V19Z" />
<path d="M17.5 11C18.38 11 19.23 11.09 20 11.26V9.74C19.21 9.59 18.36 9.5 17.5 9.5C15.8 9.5 14.26 9.79 13 10.33V11.99C14.13 11.35 15.7 11 17.5 11Z"/>
<path d="M13 12.99V14.65C14.13 14.01 15.7 13.66 17.5 13.66C18.38 13.66 19.23 13.75 20 13.92V12.4C19.21 12.25 18.36 12.16 17.5 12.16C15.8 12.16 14.26 12.46 13 12.99Z"/>
<path d="M17.5 14.83C15.8 14.83 14.26 15.12 13 15.66V17.32C14.13 16.68 15.7 16.33 17.5 16.33C18.38 16.33 19.23 16.42 20 16.59V15.07C19.21 14.91 18.36 14.83 17.5 14.83Z"/>
</g>
<defs>
<clipPath id="clip0_6087_7031">
<rect width="24" height="24" fill="white" transform="translate(0 0.5)"/>
</clipPath>
</defs>
</svg>
