<svg width="24" height="25" class="svg-menu-blue" viewBox="0 0 24 25" fill="none" xmlns="http://www.w3.org/2000/svg">
<g clip-path="url(#clip0_6087_9120)">
<path d="M15 16.5H18C18.55 16.5 19 16.05 19 15.5V9.5C19 8.95 18.55 8.5 18 8.5H15C14.45 8.5 14 8.95 14 9.5V15.5C14 16.05 14.45 16.5 15 16.5ZM16 10.5H17V14.5H16V10.5ZM9 16.5H12C12.55 16.5 13 16.05 13 15.5V9.5C13 8.95 12.55 8.5 12 8.5H9C8.45 8.5 8 8.95 8 9.5V15.5C8 16.05 8.45 16.5 9 16.5ZM10 10.5H11V14.5H10V10.5ZM5 8.5H7V16.5H5V8.5ZM2 4.5V20.5H22V4.5H2ZM20 18.5H4V6.5H20V18.5Z" />
</g>
<defs>
<clipPath id="clip0_6087_9120">
<rect width="24" height="24" fill="white" transform="translate(0 0.5)"/>
</clipPath>
</defs>
</svg>
