<svg width="24" height="25" class="svg-menu-blue" viewBox="0 0 24 25" fill="none" xmlns="http://www.w3.org/2000/svg">
<g clip-path="url(#clip0_6087_10405)">
<path d="M20 1.5V4.5H23V6.5H20V9.5H18V6.5H15V4.5H18V1.5H20ZM12 13.5C10.9 13.5 10 12.6 10 11.5C10 10.4 10.9 9.5 12 9.5C13.1 9.5 14 10.4 14 11.5C14 12.6 13.1 13.5 12 13.5ZM13 3.56V5.58C12.6692 5.52773 12.3349 5.50098 12 5.5C8.65 5.5 6 8.07 6 11.7C6 14.04 7.95 17.14 12 20.84C16.05 17.14 18 14.05 18 11.7V11.5H20V11.7C20 15.02 17.33 18.95 12 23.5C6.67 18.95 4 15.02 4 11.7C4 6.72 7.8 3.5 12 3.5C12.34 3.5 12.67 3.52 13 3.56Z"/>
</g>
<defs>
<clipPath id="clip0_6087_10405">
<rect width="24" height="24" fill="white" transform="translate(0 0.5)"/>
</clipPath>
</defs>
</svg>
