<svg width="24" height="25" class="svg-menu-blue" viewBox="0 0 24 25" fill="none" xmlns="http://www.w3.org/2000/svg">
<g clip-path="url(#clip0_6087_7433)">
<path d="M13 3.5V4.5H11V3.5H13ZM12 10.61L17.38 12.38L19.77 13.16L18.65 17.13C18.11 16.83 17.71 16.42 17.51 16.19L16 14.46L14.49 16.18C14.15 16.58 13.21 17.5 12 17.5C10.79 17.5 9.85001 16.58 9.51001 16.18L8.00001 14.46L6.49001 16.18C6.29001 16.41 5.89001 16.81 5.35001 17.11L4.22001 13.15L6.62001 12.36L12 10.61ZM15 1.5H9.00001V4.5H6.00001C4.90001 4.5 4.00001 5.4 4.00001 6.5V11.12L2.71001 11.54C2.45001 11.62 2.23001 11.8 2.11001 12.04C1.99001 12.28 1.96001 12.56 2.05001 12.82L3.95001 19.5H4.00001C5.60001 19.5 7.02001 18.62 8.00001 17.5C8.98001 18.62 10.4 19.5 12 19.5C13.6 19.5 15.02 18.62 16 17.5C16.98 18.62 18.4 19.5 20 19.5H20.05L21.94 12.82C22.02 12.56 22 12.28 21.88 12.04C21.76 11.8 21.54 11.62 21.28 11.54L20 11.12V6.5C20 5.4 19.1 4.5 18 4.5H15V1.5ZM6.00001 10.47V6.5H18V10.47L12 8.5L6.00001 10.47ZM16 20.18C14.78 21.03 13.39 21.46 12 21.46C10.61 21.46 9.22001 21.03 8.00001 20.18C6.78001 21.03 5.39001 21.5 4.00001 21.5H2.00001V23.5H4.00001C5.38001 23.5 6.74001 23.15 8.00001 22.51C9.26001 23.15 10.63 23.48 12 23.48C13.37 23.48 14.74 23.16 16 22.51C17.26 23.16 18.62 23.5 20 23.5H22V21.5H20C18.61 21.5 17.22 21.03 16 20.18Z" />
</g>
<defs>
<clipPath id="clip0_6087_7433">
<rect width="24" height="24" fill="white" transform="translate(0 0.5)"/>
</clipPath>
</defs>
</svg>
