<svg width="24" height="25" viewBox="0 0 24 25" fill="none" xmlns="http://www.w3.org/2000/svg">
<g clip-path="url(#clip0_7403_76560)">
<path d="M16.66 5.02L19.49 7.85L16.66 10.68L13.83 7.85L16.66 5.02ZM9 5.5V9.5H5V5.5H9ZM19 15.5V19.5H15V15.5H19ZM9 15.5V19.5H5V15.5H9ZM16.66 2.19L11 7.84L16.66 13.5L22.32 7.84L16.66 2.19ZM11 3.5H3V11.5H11V3.5ZM21 13.5H13V21.5H21V13.5ZM11 13.5H3V21.5H11V13.5Z" fill="#266791"/>
</g>
<defs>
<clipPath id="clip0_7403_76560">
<rect width="24" height="24" fill="white" transform="translate(0 0.5)"/>
</clipPath>
</defs>
</svg>
