<?xml version="1.0" encoding="UTF-8" standalone="no"?>
<!DOCTYPE svg PUBLIC "-//W3C//DTD SVG 1.1//EN" "http://www.w3.org/Graphics/SVG/1.1/DTD/svg11.dtd">
<svg width="100%" height="100%" viewBox="0 0 522 387" version="1.1" xmlns="http://www.w3.org/2000/svg" xmlns:xlink="http://www.w3.org/1999/xlink" xml:space="preserve" xmlns:serif="http://www.serif.com/" style="fill-rule:evenodd;clip-rule:evenodd;stroke-linejoin:round;stroke-miterlimit:2;">
    <rect id="eightydata-logo-lightbg" x="0" y="0" width="522" height="387" style="fill:none;"/>
    <clipPath id="_clip1">
        <rect id="eightydata-logo-lightbg1" serif:id="eightydata-logo-lightbg" x="0" y="0" width="522" height="387"/>
    </clipPath>
    <g clip-path="url(#_clip1)">
        <g transform="matrix(0.984189,0,0,0.984189,4.12676,-301.324)">
            <g transform="matrix(1,0,0,1,-1052.58,-106.65)">
                <rect x="1158.23" y="537.248" width="26.985" height="112.154" style="fill:rgb(14,20,45);"/>
            </g>
            <g transform="matrix(1,0,0,1,61.5237,507.746)">
                <path d="M0,-15.498C-0.182,-23.885 -7.658,-29.354 -17.32,-29.354C-25.526,-29.354 -33.184,-25.71 -35.92,-15.498L0,-15.498ZM26.438,0.365L-35.737,0.365C-33.184,8.386 -26.072,13.126 -15.862,13.126C-7.84,13.126 0.183,10.027 5.652,4.923L19.509,22.427C11.122,31.544 -3.465,36.648 -17.868,36.648C-44.671,36.648 -63.814,18.598 -63.814,-7.292C-63.814,-35.008 -42.3,-52.146 -17.868,-52.146C6.383,-52.146 26.984,-35.189 26.984,-9.298C26.984,-6.93 26.804,-3.829 26.438,0.365" style="fill:rgb(14,20,45);fill-rule:nonzero;"/>
            </g>
            <g transform="matrix(1,0,0,1,217.054,541.473)">
                <path d="M0,-41.385C0,-52.327 -9.3,-60.53 -19.51,-60.53C-30.085,-60.53 -39.201,-52.143 -39.201,-41.385C-39.201,-30.63 -30.085,-22.24 -19.51,-22.24C-9.117,-22.24 0,-30.446 0,-41.385M27.896,-83.687L27.896,-9.844C27.896,26.259 8.935,44.308 -21.88,44.308C-41.207,44.308 -57.617,33.188 -64.362,17.142L-42.118,8.209C-39.019,15.136 -30.813,20.789 -21.88,20.789C-7.841,20.789 1.094,12.948 1.094,-6.562L1.094,-8.203C-5.287,-0.362 -16.593,2.92 -25.345,2.92C-46.494,2.92 -66.55,-13.853 -66.55,-41.385C-66.55,-68.917 -46.494,-85.693 -25.345,-85.693C-16.593,-85.693 -5.287,-82.411 1.094,-74.57L1.094,-83.687L27.896,-83.687Z" style="fill:rgb(14,20,45);fill-rule:nonzero;"/>
            </g>
            <g transform="matrix(1,0,0,1,352.71,458.7)">
                <path d="M0,38.287L0,84.052L-26.985,84.052L-26.985,41.388C-26.985,28.259 -35.007,23.335 -41.753,23.335C-49.048,23.335 -58.163,27.164 -58.163,41.388L-58.163,84.052L-85.148,84.052L-85.148,-45.765L-58.163,-45.765L-58.163,12.58C-55.063,1.638 -41.389,-3.101 -33.73,-3.101C-11.123,-3.101 0,12.215 0,38.287" style="fill:rgb(14,20,45);fill-rule:nonzero;"/>
            </g>
            <g transform="matrix(1,0,0,1,426.741,491.882)">
                <path d="M0,-13.856L-17.868,-13.856L-17.868,50.87L-44.854,50.87L-44.854,-13.856L-60.352,-13.856L-60.352,-34.096L-44.854,-34.096L-44.854,-64.726L-17.868,-64.726L-17.868,-34.096L0,-34.096L0,-13.856Z" style="fill:rgb(14,20,45);fill-rule:nonzero;"/>
            </g>
            <g transform="matrix(1,0,0,1,524.29,584.689)">
                <path d="M0,-126.903L-52.512,0L-81.32,0L-60.353,-51.965L-93.9,-126.903L-63.999,-126.903L-46.313,-82.96L-28.992,-126.903L0,-126.903Z" style="fill:rgb(14,20,45);fill-rule:nonzero;"/>
            </g>
            <g transform="matrix(1,0,0,1,104.916,612.229)">
                <path d="M0,42.848C0,31.906 -9.3,23.703 -19.51,23.703C-30.086,23.703 -39.201,32.09 -39.201,42.848C-39.201,53.603 -30.086,61.993 -19.51,61.993C-9.117,61.993 0,53.787 0,42.848M27.896,-44.305L27.896,85.512L1.094,85.512L1.094,75.849C-5.106,83.871 -16.593,87.153 -25.345,87.153C-46.494,87.153 -66.55,70.38 -66.55,42.848C-66.55,15.316 -46.494,-1.46 -25.345,-1.46C-16.593,-1.46 -5.106,1.822 1.094,9.844L1.094,-44.305L27.896,-44.305Z" style="fill:rgb(14,20,45);fill-rule:nonzero;"/>
            </g>
            <g transform="matrix(1,0,0,1,217.236,655.074)">
                <path d="M0,0.003C0,-10.939 -9.299,-19.142 -19.51,-19.142C-30.085,-19.142 -39.2,-10.755 -39.2,0.003C-39.2,10.758 -30.085,19.148 -19.51,19.148C-9.116,19.148 0,10.942 0,0.003M27.896,-42.299L27.896,42.667L1.094,42.667L1.094,33.004C-5.105,41.026 -16.593,44.308 -25.344,44.308C-46.494,44.308 -66.55,27.535 -66.55,0.003C-66.55,-27.529 -46.494,-44.305 -25.344,-44.305C-16.593,-44.305 -5.105,-41.023 1.094,-33.001L1.094,-42.299L27.896,-42.299Z" style="fill:rgb(14,20,45);fill-rule:nonzero;"/>
            </g>
            <g transform="matrix(1,0,0,1,321.351,646.871)">
                <path d="M0,-13.856L-17.868,-13.856L-17.868,50.87L-44.854,50.87L-44.854,-13.856L-60.352,-13.856L-60.352,-34.096L-44.854,-34.096L-44.854,-64.726L-17.868,-64.726L-17.868,-34.096L0,-34.096L0,-13.856Z" style="fill:rgb(14,20,45);fill-rule:nonzero;"/>
            </g>
            <g transform="matrix(1,0,0,1,396.292,655.074)">
                <path d="M0,0.003C0,-10.939 -9.299,-19.142 -19.51,-19.142C-30.084,-19.142 -39.2,-10.755 -39.2,0.003C-39.2,10.758 -30.084,19.148 -19.51,19.148C-9.117,19.148 0,10.942 0,0.003M27.896,-42.299L27.896,42.667L1.094,42.667L1.094,33.004C-5.105,41.026 -16.593,44.308 -25.345,44.308C-46.494,44.308 -66.551,27.535 -66.551,0.003C-66.551,-27.529 -46.494,-44.305 -25.345,-44.305C-16.593,-44.305 -5.105,-41.023 1.094,-33.001L1.094,-42.299L27.896,-42.299Z" style="fill:rgb(14,20,45);fill-rule:nonzero;"/>
            </g>
            <g transform="matrix(1,0,0,1,116.903,425.457)">
                <path d="M0,-49.379C-13.615,-49.379 -24.69,-38.304 -24.69,-24.69C-24.69,-11.075 -13.615,-0 0,-0C13.614,-0 24.69,-11.075 24.69,-24.69C24.69,-38.304 13.614,-49.379 0,-49.379M0,24.518C-27.133,24.518 -49.209,2.443 -49.209,-24.69C-49.209,-51.822 -27.133,-73.897 0,-73.897C27.133,-73.897 49.208,-51.822 49.208,-24.69C49.208,2.443 27.133,24.518 0,24.518" style="fill:white;fill-rule:nonzero;"/>
            </g>
            <g transform="matrix(1,0,0,1,116.903,419.741)">
                <path d="M0,-37.947C-10.463,-37.947 -18.975,-29.436 -18.975,-18.974C-18.975,-8.512 -10.463,-0.001 0,-0.001C10.463,-0.001 18.974,-8.512 18.974,-18.974C18.974,-29.436 10.463,-37.947 0,-37.947M0,18.841C-20.852,18.841 -37.815,1.877 -37.815,-18.974C-37.815,-39.824 -20.852,-56.788 0,-56.788C20.851,-56.788 37.814,-39.824 37.814,-18.974C37.814,1.877 20.851,18.841 0,18.841" style="fill:rgb(39,226,128);fill-rule:nonzero;"/>
            </g>
            <g transform="matrix(1,0,0,1,116.903,362.953)">
                <path d="M0,-37.947C-10.463,-37.947 -18.975,-29.436 -18.975,-18.974C-18.975,-8.511 -10.463,-0 0,-0C10.463,-0 18.974,-8.511 18.974,-18.974C18.974,-29.436 10.463,-37.947 0,-37.947M0,18.841C-20.852,18.841 -37.815,1.877 -37.815,-18.974C-37.815,-39.824 -20.852,-56.788 0,-56.788C20.851,-56.788 37.814,-39.824 37.814,-18.974C37.814,1.877 20.851,18.841 0,18.841" style="fill:rgb(39,226,128);fill-rule:nonzero;"/>
            </g>
            <g transform="matrix(1,0,0,1,166.399,391.347)">
                <path d="M0,-37.947C-10.463,-37.947 -18.974,-29.436 -18.974,-18.974C-18.974,-8.511 -10.463,-0 0,-0C10.463,-0 18.974,-8.511 18.974,-18.974C18.974,-29.436 10.463,-37.947 0,-37.947M0,18.841C-20.851,18.841 -37.815,1.877 -37.815,-18.974C-37.815,-39.824 -20.851,-56.788 0,-56.788C20.851,-56.788 37.815,-39.824 37.815,-18.974C37.815,1.877 20.851,18.841 0,18.841" style="fill:rgb(39,226,128);fill-rule:nonzero;"/>
            </g>
        </g>
    </g>
</svg>
