<svg width="24" height="25" class="svg-menu-blue" viewBox="0 0 24 25" xmlns="http://www.w3.org/2000/svg">
<path d="M21.75 6.5H2.25C1.83579 6.5 1.5 6.83579 1.5 7.25V17.75C1.5 18.1642 1.83579 18.5 2.25 18.5H21.75C22.1642 18.5 22.5 18.1642 22.5 17.75V7.25C22.5 6.83579 22.1642 6.5 21.75 6.5Z" stroke="#266791" stroke-width="2" stroke-linecap="round" stroke-linejoin="round"/>
<path d="M12 15.5C13.6569 15.5 15 14.1569 15 12.5C15 10.8431 13.6569 9.5 12 9.5C10.3431 9.5 9 10.8431 9 12.5C9 14.1569 10.3431 15.5 12 15.5Z" stroke="#266791" stroke-width="2" stroke-linecap="round" stroke-linejoin="round"/>
<path d="M16.5 6.5L22.5 11.75" stroke="#266791" stroke-width="2" stroke-linecap="round" stroke-linejoin="round"/>
<path d="M16.5 18.5L22.5 13.25" stroke="#266791" stroke-width="2" stroke-linecap="round" stroke-linejoin="round"/>
<path d="M7.5 6.5L1.5 11.75" stroke="#266791" stroke-width="2" stroke-linecap="round" stroke-linejoin="round"/>
<path d="M7.5 18.5L1.5 13.25" stroke="#266791" stroke-width="2" stroke-linecap="round" stroke-linejoin="round"/>
</svg>
