<svg width="20" class="svg-icon-white" height="19" viewBox="0 0 20 19"  xmlns="http://www.w3.org/2000/svg">
<path d="M18.25 3.5325L8.26625 13.525L4.55625 9.815L5.79 8.58125L8.26625 11.0575L17.0163 2.3075L18.25
3.5325ZM9.5 16.5C5.64125 16.5 2.5 13.3587 2.5 9.5C2.5 5.64125 5.64125 2.5 9.5 2.5C10.8737 2.5 12.16 2.9025
13.245 3.59375L14.5138 2.325C13.0875 1.33625 11.3638 0.75 9.5 0.75C4.67 0.75 0.75 4.67 0.75 9.5C0.75 14.33
4.67 18.25 9.5 18.25C11.0138 18.25 12.44 17.865 13.6825 17.1825L12.37 15.87C11.495 16.2725 10.5238 16.5 9.5
 16.5ZM15.625 12.125H13V13.875H15.625V16.5H17.375V13.875H20V12.125H17.375V9.5H15.625V12.125Z"/>
</svg>
