<svg width="18" height="18" viewBox="0 0 18 18" fill="none" xmlns="http://www.w3.org/2000/svg">
<path d="M9.5625 10.125C10.8051 10.125 11.8125 9.11764 11.8125 7.875C11.8125 6.63236 10.8051 5.625 9.5625 5.625C8.31986 5.625 7.3125 6.63236 7.3125 7.875C7.3125 9.11764 8.31986 10.125 9.5625 10.125Z" stroke="#8191A4" stroke-width="2" stroke-linecap="round" stroke-linejoin="round"/>
<path d="M2.25 7.59375H3.9375" stroke="#8191A4" stroke-width="2" stroke-linecap="round" stroke-linejoin="round"/>
<path d="M2.25 4.78125H3.9375" stroke="#8191A4" stroke-width="2" stroke-linecap="round" stroke-linejoin="round"/>
<path d="M2.25 10.4062H3.9375" stroke="#8191A4" stroke-width="2" stroke-linecap="round" stroke-linejoin="round"/>
<path d="M2.25 13.2188H3.9375" stroke="#8191A4" stroke-width="2" stroke-linecap="round" stroke-linejoin="round"/>
<path d="M6.1875 11.8125C6.58046 11.2885 7.09002 10.8633 7.67582 10.5704C8.26161 10.2775 8.90756 10.125 9.5625 10.125C10.2174 10.125 10.8634 10.2775 11.4492 10.5704C12.035 10.8633 12.5445 11.2885 12.9375 11.8125" stroke="#8191A4" stroke-width="2" stroke-linecap="round" stroke-linejoin="round"/>
<path d="M15.1875 15.1875V2.8125C15.1875 2.50184 14.9357 2.25 14.625 2.25L4.5 2.25C4.18934 2.25 3.9375 2.50184 3.9375 2.8125V15.1875C3.9375 15.4982 4.18934 15.75 4.5 15.75H14.625C14.9357 15.75 15.1875 15.4982 15.1875 15.1875Z" stroke="#8191A4" stroke-width="2" stroke-linecap="round" stroke-linejoin="round"/>
</svg>
