<svg width="24" height="25" class="svg-menu-blue" viewBox="0 0 24 25" fill="none" xmlns="http://www.w3.org/2000/svg">
<g clip-path="url(#clip0_2952_31491)">
<path d="M19 3.5H5C3.9 3.5 3 4.4 3 5.5V19.5C3 20.6 3.9 21.5 5 21.5H19C20.1 21.5 21 20.6 21 19.5V5.5C21 4.4 20.1 3.5 19 3.5ZM19 19.5H5V5.5H19V19.5Z"/>
<path d="M9 12.5H7V17.5H9V12.5Z"/>
<path d="M17 7.5H15V17.5H17V7.5Z"/>
<path d="M13 14.5H11V17.5H13V14.5Z"/>
<path d="M13 10.5H11V12.5H13V10.5Z"/>
</g>
<defs>
<clipPath id="clip0_2952_31491">
<rect width="24" height="24" fill="white" transform="translate(0 0.5)"/>
</clipPath>
</defs>
</svg>
