<svg width="39" height="40" viewBox="0 0 39 40" fill="none" xmlns="http://www.w3.org/2000/svg">
<g clip-path="url(#clip0_1157_14072)">
<path d="M31.4438 16.815C30.3388 11.2087 25.415 7 19.5 7C14.8037 7 10.725 9.665 8.69375 13.565C3.8025 14.085 0 18.2288 0 23.25C0 28.6287 4.37125 33 9.75 33H30.875C35.36 33 39 29.36 39 24.875C39 20.585 35.6688 17.1075 31.4438 16.815ZM30.875 29.75H9.75C6.15875 29.75 3.25 26.8413 3.25 23.25C3.25 19.9188 5.73625 17.14 9.035 16.7987L10.7738 16.62L11.5863 15.0763C13.13 12.1025 16.1525 10.25 19.5 10.25C23.7575 10.25 27.43 13.2725 28.2587 17.4488L28.7463 19.8863L31.2325 20.065C33.7675 20.2275 35.75 22.3563 35.75 24.875C35.75 27.5562 33.5562 29.75 30.875 29.75V29.75ZM13 21.625H17.1438V26.5H21.8562V21.625H26L19.5 15.125L13 21.625Z" fill="#266791"/>
</g>
<defs>
<clipPath id="clip0_1157_14072">
<rect width="39" height="39" fill="white" transform="translate(0 0.5)"/>
</clipPath>
</defs>
</svg>
