<svg width="24" height="25" viewBox="0 0 24 25" fill="none" xmlns="http://www.w3.org/2000/svg">
<path d="M10.0802 9.50033C10.0802 8.39576 10.9251 7.50033 11.9673 7.50033C13.0095 7.50033 13.8544 8.39576 13.8544 9.50033C13.8544 10.6049 13.0095 11.5003 11.9673 11.5003C10.9251 11.5003 10.0802 10.6049 10.0802 9.50033Z" fill="#266791"/>
<path d="M11.0237 13.0003C9.46041 13.0003 8.1931 14.3435 8.1931 16.0003C8.1931 16.5526 8.61554 17.0003 9.13664 17.0003H14.7979C15.319 17.0003 15.7414 16.5526 15.7414 16.0003C15.7414 14.3435 14.4741 13.0003 12.9108 13.0003H11.0237Z" fill="#266791"/>
<path fill-rule="evenodd" clip-rule="evenodd" d="M7.7624 3.38301C10.5513 2.95827 13.3832 2.95827 16.1722 3.38301C17.5549 3.5936 18.6203 4.78299 18.7468 6.25744L18.8666 7.65317C19.1434 10.878 19.1434 14.1227 18.8666 17.3475L18.7468 18.7432C18.6203 20.2177 17.5549 21.4071 16.1722 21.6176C13.3832 22.0424 10.5513 22.0424 7.7624 21.6176C6.37965 21.4071 5.3143 20.2177 5.18774 18.7432L5.06794 17.3475C4.79115 14.1227 4.79115 10.878 5.06794 7.65318L5.18774 6.25744C5.3143 4.78299 6.37965 3.5936 7.7624 3.38301ZM15.9708 4.86776C13.3154 4.46335 10.6191 4.46335 7.96371 4.86776C7.22983 4.97953 6.6644 5.61078 6.59724 6.39334L6.47744 7.78907C6.20841 10.9234 6.20841 14.0772 6.47744 17.2116L6.59724 18.6073C6.6644 19.3899 7.22983 20.0211 7.96371 20.1329C10.6191 20.5373 13.3154 20.5373 15.9708 20.1329C16.7047 20.0211 17.2701 19.3899 17.3373 18.6073L17.4571 17.2116C17.7261 14.0772 17.7261 10.9234 17.4571 7.78906L17.3373 6.39333C17.2701 5.61078 16.7047 4.97953 15.9708 4.86776Z" fill="#266791"/>
</svg>
