<svg width="51" height="51" viewBox="0 0 51 51" fill="none" xmlns="http://www.w3.org/2000/svg">
<circle cx="25.5" cy="25.5" r="25" fill="#62996B"/>
<g clip-path="url(#clip0_2853_36365)">
<path d="M33.9745 20.1441L24.3051 29.8221L20.7118 26.2289L21.9067 25.034L24.3051 27.4323L32.7796 18.9577L33.9745 20.1441ZM25.5 32.7035C21.7627 32.7035 18.7203 29.6611 18.7203 25.9238C18.7203 22.1865 21.7627 19.1441 25.5 19.1441C26.8305 19.1441 28.0762 19.534 29.1271 20.2035L30.3559 18.9746C28.9745 18.017 27.3051 17.4492 25.5 17.4492C20.822 17.4492 17.0254 21.2458 17.0254 25.9238C17.0254 30.6018 20.822 34.3984 25.5 34.3984C26.9661 34.3984 28.3474 34.0255 29.5508 33.3645L28.2796 32.0933C27.4322 32.4831 26.4915 32.7035 25.5 32.7035ZM31.4322 28.4662H28.8898V30.1611H31.4322V32.7035H33.1271V30.1611H35.6695V28.4662H33.1271V25.9238H31.4322V28.4662Z" fill="white"/>
</g>
<defs>
<clipPath id="clip0_2853_36365">
<rect width="20.339" height="20.339" fill="white" transform="translate(15.3306 15.7544)"/>
</clipPath>
</defs>
</svg>
