<svg width="18" height="22" viewBox="0 0 18 22" fill="none" xmlns="http://www.w3.org/2000/svg">
<g clip-path="url(#clip0_5283_46381)">
<path d="M15.2609 21.1866C14.9478 21.1866 14.6348 21.0229 14.5565 20.6957L12.6 15.7866C12.4435 15.3775 12.6 14.8866 12.9913 14.7229C13.3826 14.5593 13.8522 14.7229 14.0087 15.132L15.2609 18.2411L16.5131 15.132C16.6696 14.7229 17.1391 14.4775 17.5305 14.7229C17.9218 14.8866 18.1565 15.3775 17.9218 15.7866L15.9652 20.6957C15.887 21.0229 15.5739 21.1866 15.2609 21.1866Z" fill="#62996B"/>
<path d="M2.97391 21.1861C1.33043 21.1861 0 19.7134 0 17.9134C0 16.1134 1.33043 14.6406 2.97391 14.6406C3.67826 14.6406 4.38261 14.8861 4.85217 15.377C5.16522 15.7043 5.16522 16.1952 4.93044 16.5224C4.61739 16.8497 4.14783 16.8497 3.83478 16.6043C3.52174 16.4406 3.2087 16.277 2.89565 16.277C2.11304 16.277 1.56522 17.0134 1.56522 17.9134C1.56522 18.8134 2.1913 19.5497 2.97391 19.5497C3.28696 19.5497 3.6 19.3861 3.83478 19.2224C4.14783 18.8952 4.61739 18.977 4.93044 19.3043C5.24348 19.6315 5.16522 20.1224 4.85217 20.4497C4.30435 20.9406 3.67826 21.1861 2.97391 21.1861Z" fill="#62996B"/>
<path d="M8.92191 21.2696C8.21756 21.2696 7.51321 21.0242 6.96539 20.6151C6.65234 20.3696 6.57408 19.7969 6.80887 19.4696C7.04365 19.1424 7.59147 19.0605 7.90452 19.306C8.21756 19.5515 8.5306 19.6333 8.92191 19.6333C9.78278 19.6333 9.78278 19.306 9.78278 19.1424C9.78278 18.9787 9.31321 18.8151 8.76539 18.6515C7.90452 18.406 6.65234 18.0787 6.65234 16.6878C6.65234 15.4605 7.59147 14.5605 8.92191 14.5605C9.62626 14.5605 10.3306 14.806 10.8784 15.2151C11.1915 15.4605 11.2697 16.0333 11.035 16.3605C10.8002 16.6878 10.2523 16.7696 9.9393 16.5242C9.62626 16.2787 9.31321 16.1969 8.92191 16.1969C8.45234 16.1969 8.21756 16.3605 8.21756 16.6878C8.29582 16.8515 8.84365 17.0151 9.15669 17.0969C9.9393 17.3424 11.348 17.6696 11.348 19.1424C11.348 20.4515 10.4089 21.2696 8.92191 21.2696Z" fill="#62996B"/>
<path d="M16.8264 12.187C16.3568 12.187 16.0438 11.8597 16.0438 11.3688V7.60515L11.0351 2.36879H1.95682V11.3688C1.95682 11.8597 1.64378 12.187 1.17421 12.187C0.704645 12.187 0.391602 11.8597 0.391602 11.3688V2.36879C0.391602 1.95969 0.548123 1.5506 0.861167 1.22333C1.17421 0.896058 1.56551 0.732422 1.95682 0.732422H11.3481C11.5829 0.732422 11.7394 0.81424 11.896 0.977876L17.3742 6.70515C17.5307 6.86879 17.609 7.03242 17.609 7.27788V11.3688C17.609 11.8597 17.296 12.187 16.8264 12.187Z" fill="#62996B"/>
<path d="M16.8263 8.09606H11.348C10.8785 8.09606 10.5654 7.76878 10.5654 7.27788V1.5506C10.5654 1.05969 10.8785 0.732422 11.348 0.732422C11.8176 0.732422 12.1306 1.05969 12.1306 1.5506V6.45969H16.8263C17.2959 6.45969 17.6089 6.78697 17.6089 7.27788C17.6089 7.76878 17.2959 8.09606 16.8263 8.09606Z" fill="#62996B"/>
</g>
<defs>
<clipPath id="clip0_5283_46381">
<rect width="18" height="20.5364" fill="white" transform="translate(0 0.732422)"/>
</clipPath>
</defs>
</svg>
