<svg width="23" height="25" viewBox="0 0 23 25" fill="none" xmlns="http://www.w3.org/2000/svg">
<path d="M14.8605 13.5C14.8605 13.0858 14.5437 12.75 14.1528 12.75H8.49159C8.10076 12.75 7.78393 13.0858 7.78393 13.5C7.78393 13.9142 8.10076 14.25 8.49159 14.25H14.1528C14.5437 14.25 14.8605 13.9142 14.8605 13.5Z" fill="#266791"/>
<path d="M14.8605 17.5C14.8605 17.0858 14.5437 16.75 14.1528 16.75H8.49159C8.10076 16.75 7.78393 17.0858 7.78393 17.5C7.78393 17.9142 8.10076 18.25 8.49159 18.25H14.1528C14.5437 18.25 14.8605 17.9142 14.8605 17.5Z" fill="#266791"/>
<path fill-rule="evenodd" clip-rule="evenodd" d="M6.60451 2.75C5.17147 2.75 4.00977 3.98122 4.00977 5.5V19.5C4.00977 21.0188 5.17147 22.25 6.60451 22.25H16.0399C17.473 22.25 18.6347 21.0188 18.6347 19.5V8.46766C18.6347 8.08689 18.5175 7.71651 18.3009 7.4127L15.4724 3.44504C15.1603 3.0073 14.6726 2.75 14.1549 2.75H6.60451ZM5.42508 5.5C5.42508 4.80964 5.95313 4.25 6.60451 4.25H13.4452V8.64705C13.4452 9.06126 13.762 9.39705 14.1528 9.39705H17.2194V19.5C17.2194 20.1904 16.6913 20.75 16.0399 20.75H6.60451C5.95313 20.75 5.42508 20.1904 5.42508 19.5V5.5Z" fill="#266791"/>
</svg>
