<svg width="21" height="22" class="svg-blue-faqs" viewBox="0 0 21 22" fill="none" xmlns="http://www.w3.org/2000/svg">
<g clip-path="url(#clip0_2952_31541)">
<path d="M9.625 16.25H11.375V14.5H9.625V16.25ZM10.5 2.25C5.67 2.25 1.75 6.17 1.75 11C1.75 15.83 5.67
19.75 10.5 19.75C15.33 19.75 19.25 15.83 19.25 11C19.25 6.17 15.33 2.25 10.5 2.25ZM10.5 18C6.64125 18
3.5 14.8587 3.5 11C3.5 7.14125 6.64125 4 10.5 4C14.3587 4 17.5 7.14125 17.5 11C17.5 14.8587 14.3587
18 10.5 18ZM10.5 5.75C8.56625 5.75 7 7.31625 7 9.25H8.75C8.75 8.2875 9.5375 7.5 10.5 7.5C11.4625 7.5
12.25 8.2875 12.25 9.25C12.25 11 9.625 10.7812 9.625 13.625H11.375C11.375 11.6562 14 11.4375 14 9.25C14
7.31625 12.4338 5.75 10.5 5.75Z"/>
</g>
<defs>
<clipPath id="clip0_2952_31541">
<rect width="21" height="21" fill="white" transform="translate(0 0.5)"/>
</clipPath>
</defs>
</svg>
