<svg width="51" height="51" viewBox="0 0 51 51" fill="none" xmlns="http://www.w3.org/2000/svg">
<circle cx="25.3333" cy="25.5" r="25" fill="#3F9AD5"/>
<g clip-path="url(#clip0_2853_36411)">
<rect width="20.339" height="20.339" transform="translate(15.1638 15.7544)" fill="#3F9AD5"/>
<path d="M25.3332 21.7967L26.1553 23.7374L26.5536 24.678L27.5705 24.7628L29.6637 24.9407L28.0705 26.3221L27.2993 26.9916L27.5281 27.9916L28.0027 30.034L26.2061 28.9492L25.3332 28.4068L24.4603 28.9323L22.6637 30.017L23.1383 27.9746L23.3671 26.9746L22.5959 26.3052L21.0027 24.9238L23.0959 24.7458L24.1129 24.6611L24.5112 23.7204L25.3332 21.7967ZM25.3332 17.4492L22.9519 23.0679L16.8586 23.5848L21.4858 27.5933L20.0959 33.5509L25.3332 30.3899L30.5705 33.5509L29.1807 27.5933L33.8078 23.5848L27.7146 23.0679L25.3332 17.4492Z" fill="white"/>
</g>
<defs>
<clipPath id="clip0_2853_36411">
<rect width="20.339" height="20.339" fill="white" transform="translate(15.1638 15.7544)"/>
</clipPath>
</defs>
</svg>
