<svg width="16" height="15" class="svg-menu-blue" viewBox="0 0 13 12" fill="none" xmlns="http://www.w3.org/2000/svg">
<path id="Vector" d="M0.75113 5.35286C0.41629 5.71079 0.41629 6.29207 0.75113 6.65001L5.03708 11.2315C5.37192 11.5895 5.9157 11.5895 6.25054 11.2315C6.58538 10.8736 6.58538 10.2923 6.25054 9.9344L3.42449 6.91631L11.6428 6.91631C12.1169 6.91631 12.5 6.50683 12.5 6C12.5 5.49317 12.1169 5.08369 11.6428 5.08369L3.42717 5.08369L6.24787 2.0656C6.58271 1.70767 6.58271 1.12638 6.24787 0.76845C5.91303 0.410517 5.36925 0.410517 5.03441 0.76845L0.748451 5.34999L0.75113 5.35286Z" fill="#266791"/>
</svg>
