<svg width="22" height="23" class="svg-menu-blue" viewBox="0 0 22 23" fill="none" xmlns="http://www.w3.org/2000/svg">
<g id="SlidersHorizontal">
<path id="Vector" d="M12.6815 15.2729H3.48818" stroke="#266791" stroke-width="1.21065" stroke-linecap="round" stroke-linejoin="round"/>
<path id="Vector_2" d="M18.4699 15.2729H16.0865" stroke="#266791" stroke-width="1.21065" stroke-linecap="round" stroke-linejoin="round"/>
<path id="Vector_3" d="M14.384 16.9757C15.3242 16.9757 16.0865 16.2135 16.0865 15.2733C16.0865 14.333 15.3242 13.5708 14.384 13.5708C13.4437 13.5708 12.6815 14.333 12.6815 15.2733C12.6815 16.2135 13.4437 16.9757 14.384 16.9757Z" stroke="#266791" stroke-width="1.21065" stroke-linecap="round" stroke-linejoin="round"/>
<path id="Vector_4" d="M7.23362 7.78223H3.48818" stroke="#266791" stroke-width="1.21065" stroke-linecap="round" stroke-linejoin="round"/>
<path id="Vector_5" d="M18.4699 7.78223H10.6386" stroke="#266791" stroke-width="1.21065" stroke-linecap="round" stroke-linejoin="round"/>
<path id="Vector_6" d="M8.93609 9.48502C9.87634 9.48502 10.6386 8.7228 10.6386 7.78255C10.6386 6.8423 9.87634 6.08008 8.93609 6.08008C7.99584 6.08008 7.23362 6.8423 7.23362 7.78255C7.23362 8.7228 7.99584 9.48502 8.93609 9.48502Z" stroke="#266791" stroke-width="1.21065" stroke-linecap="round" stroke-linejoin="round"/>
</g>
</svg>
