<svg width="26" height="26" viewBox="0 0 26 26" fill="none" xmlns="http://www.w3.org/2000/svg">
<g id="Group 1000002396">
<g id="Group 1000002336">
<g id="Group 241">
<path id="Star 2" d="M13.856 24.9688L13 24.9994L12.144 24.9688L11.2923 24.8772L10.4494 24.7251L9.61939 24.5133L8.80665 24.2428L8.01529 23.915L7.24932 23.5316L6.51266 23.0945L5.80904 22.606L5.1421 22.0685L4.51518 21.4848L3.93149 20.8579L3.39401 20.1909L2.90549 19.4873L2.46842 18.7507L2.085 17.9847L1.7572 17.1933L1.4867 16.3806L1.27486 15.5507L1.12277 14.7077L1.03121 13.856L1.00064 13L1.03121 12.144L1.12277 11.2923L1.27486 10.4493L1.4867 9.61938L1.7572 8.80667L2.085 8.01528L2.46841 7.24932L2.9055 6.51264L3.39401 5.80906L3.93149 5.14209L4.51517 4.51517L5.14209 3.93148L5.80906 3.39401L6.51265 2.9055L7.24932 2.46841L8.01529 2.085L8.80667 1.75719L9.61939 1.4867L10.4493 1.27486L11.2923 1.12277L12.144 1.03121L13 1.00064L13.856 1.03121L14.7077 1.12277L15.5507 1.27486L16.3806 1.4867L17.1933 1.7572L17.9847 2.08499L18.7507 2.46842L19.4873 2.90549L20.1909 3.39401L20.8579 3.93149L21.4848 4.51517L22.0685 5.1421L22.606 5.80904L23.0945 6.51266L23.5316 7.24932L23.915 8.01529L24.2428 8.80665L24.5133 9.61939L24.7251 10.4494L24.8772 11.2923L24.9688 12.144L24.9994 13L24.9688 13.856L24.8772 14.7077L24.7251 15.5506L24.5133 16.3806L24.2428 17.1934L23.915 17.9847L23.5316 18.7507L23.0945 19.4873L22.606 20.191L22.0685 20.8579L21.4848 21.4848L20.8579 22.0685L20.191 22.606L19.4873 23.0945L18.7507 23.5316L17.9847 23.915L17.1934 24.2428L16.3806 24.5133L15.5506 24.7251L14.7077 24.8772L13.856 24.9688Z" stroke="#FF0000" stroke-width="2"/>
</g>
<path id="Vector 8" d="M8.32031 17.6803L17.6803 8.32031" stroke="#FF0000" stroke-width="2" stroke-linecap="round"/>
<path id="Vector 9" d="M17.6803 17.6797L8.32031 8.31969" stroke="#FF0000" stroke-width="2" stroke-linecap="round"/>
</g>
</g>
</svg>
