<svg width="25" height="24" viewBox="0 0 25 24" fill="none" xmlns="http://www.w3.org/2000/svg">
<g clip-path="url(#clip0_185_863)">
<path d="M18.3506 8H17.3506V6C17.3506 3.24 15.1106 1 12.3506 1C9.59059 1 7.35059 3.24 7.35059 6V8H6.35059C5.25059 8 4.35059 8.9 4.35059 10V20C4.35059 21.1 5.25059 22 6.35059 22H18.3506C19.4506 22 20.3506 21.1 20.3506 20V10C20.3506 8.9 19.4506 8 18.3506 8ZM12.3506 17C11.2506 17 10.3506 16.1 10.3506 15C10.3506 13.9 11.2506 13 12.3506 13C13.4506 13 14.3506 13.9 14.3506 15C14.3506 16.1 13.4506 17 12.3506 17ZM15.4506 8H9.25059V6C9.25059 4.29 10.6406 2.9 12.3506 2.9C14.0606 2.9 15.4506 4.29 15.4506 6V8Z" fill="#8191A4"/>
</g>
<defs>
<clipPath id="clip0_185_863">
<rect width="24" height="24" fill="white" transform="translate(0.350586)"/>
</clipPath>
</defs>
</svg>
