<svg width="27" height="25" viewBox="0 0 27 25" fill="none" xmlns="http://www.w3.org/2000/svg">
<path d="M10.3038 12.9845C13.8895 12.9845 16.7962 10.0778 16.7962 6.4922C16.7962 2.90659 13.8895 -0.00012207 10.3038 -0.00012207C6.71823 -0.00012207 3.81152 2.90659 3.81152 6.4922C3.81152 10.0778 6.71823 12.9845 10.3038 12.9845Z" fill="#E5E5E5"/>
<path d="M15.9448 24.2945C15.8171 24.2945 15.6906 24.2693 15.5725 24.2203C15.4545 24.1714 15.3473 24.0997 15.257 24.0092C15.1667 23.9188 15.0952 23.8115 15.0464 23.6934C14.9977 23.5753 14.9727 23.4487 14.9729 23.321V16.1441C14.9727 15.8586 15.0287 15.5759 15.1378 15.3122C15.2469 15.0484 15.4069 14.8087 15.6087 14.6068C15.8105 14.4049 16.05 14.2447 16.3137 14.1355C16.5774 14.0262 16.8601 13.9699 17.1455 13.9699H17.2388C16.7929 13.5592 16.3115 13.1886 15.8004 12.8625C14.2741 14.18 12.3249 14.9049 10.3086 14.9049C8.29232 14.9049 6.34321 14.18 4.81687 12.8625C3.36736 13.7822 2.17371 15.0532 1.34672 16.5575C0.519731 18.0618 0.0862184 19.7507 0.0864259 21.4673V21.9187C0.0864259 22.552 0.337996 23.1593 0.785793 23.6071C1.23359 24.0549 1.84093 24.3065 2.47422 24.3065H18.1416C18.2002 24.3065 18.2589 24.3065 18.3161 24.2975L15.9448 24.2945Z" fill="#E5E5E5"/>
<path d="M25.8465 15.1619H25.2672V13.4768C25.2672 12.4429 24.8565 11.4513 24.1254 10.7202C23.3943 9.98909 22.4027 9.57837 21.3688 9.57837C20.8567 9.57817 20.3496 9.67886 19.8765 9.87469C19.4034 10.0705 18.9734 10.3576 18.6113 10.7197C18.2491 11.0817 17.9618 11.5115 17.7658 11.9846C17.5698 12.4576 17.4689 12.9647 17.4689 13.4768V15.1619H16.9664C16.6839 15.1619 16.4129 15.2741 16.2131 15.4739C16.0134 15.6737 15.9011 15.9446 15.9011 16.2272V22.6397C15.9011 22.8583 15.9442 23.0747 16.0278 23.2766C16.1114 23.4785 16.234 23.6619 16.3885 23.8164C16.543 23.971 16.7265 24.0935 16.9284 24.1772C17.1303 24.2608 17.3467 24.3038 17.5652 24.3038H25.2477C25.6891 24.3038 26.1126 24.1286 26.4249 23.8165C26.7372 23.5045 26.9128 23.0812 26.9132 22.6397V16.2272C26.9132 16.0872 26.8856 15.9485 26.832 15.8192C26.7784 15.6898 26.6998 15.5723 26.6007 15.4734C26.5016 15.3745 26.384 15.296 26.2546 15.2426C26.1252 15.1891 25.9865 15.1617 25.8465 15.1619ZM21.9029 19.8608L21.9752 21.1743C21.9764 21.1937 21.9736 21.2132 21.967 21.2315C21.9603 21.2498 21.95 21.2666 21.9366 21.2807C21.9231 21.2949 21.9069 21.3061 21.889 21.3136C21.871 21.3212 21.8517 21.325 21.8322 21.3247H20.9806C20.9613 21.3248 20.9421 21.3208 20.9243 21.3132C20.9066 21.3055 20.8905 21.2943 20.8773 21.2802C20.864 21.2661 20.8538 21.2494 20.8473 21.2312C20.8407 21.213 20.838 21.1936 20.8392 21.1743L20.9114 19.8608C20.7126 19.7508 20.556 19.578 20.4661 19.3693C20.3762 19.1606 20.3583 18.928 20.4151 18.7081C20.4718 18.4881 20.6001 18.2932 20.7797 18.1541C20.9593 18.0149 21.18 17.9394 21.4072 17.9394C21.6344 17.9394 21.8551 18.0149 22.0347 18.1541C22.2143 18.2932 22.3426 18.4881 22.3993 18.7081C22.4561 18.928 22.4381 19.1606 22.3483 19.3693C22.2584 19.578 22.1018 19.7508 21.9029 19.8608ZM23.9236 15.1619H18.8516V13.5926C18.8516 12.9202 19.1187 12.2754 19.5942 11.7999C20.0696 11.3245 20.7145 11.0574 21.3869 11.0574C21.7199 11.0572 22.0498 11.1226 22.3575 11.2499C22.6653 11.3773 22.945 11.564 23.1805 11.7994C23.4161 12.0348 23.603 12.3144 23.7305 12.6221C23.858 12.9298 23.9236 13.2596 23.9236 13.5926V15.1619Z" fill="#E5E5E5"/>
</svg>
