<svg width="22" height="22" class="svg-green-log" viewBox="0 0 22 22" fill="none" xmlns="http://www.w3.org/2000/svg">
<g clip-path="url(#clip0_2952_31549)">
<path d="M12.208 3.125H10.458V11.875H12.208V3.125ZM16.4343 5.02375L15.1918 6.26625C16.5743 7.3775 17.458
9.08375 17.458 11C17.458 14.3862 14.7193 17.125 11.333 17.125C7.94676 17.125 5.20801 14.3862 5.20801
11C5.20801 9.08375 6.09176 7.3775 7.46551 6.2575L6.23176 5.02375C4.53426 6.4675 3.45801 8.6025 3.45801
11C3.45801 15.3488 6.98426 18.875 11.333 18.875C15.6818 18.875 19.208 15.3488 19.208 11C19.208 8.6025
18.1318 6.4675 16.4343 5.02375Z"/>
</g>
<defs>
<clipPath id="clip0_2952_31549">
<rect width="21" height="21" fill="white" transform="translate(0.833008 0.5)"/>
</clipPath>
</defs>
</svg>
