<svg width="51" height="51" viewBox="0 0 51 51" fill="none" xmlns="http://www.w3.org/2000/svg">
<circle cx="25.75" cy="25.5" r="25" fill="#3F9AD5"/>
<g clip-path="url(#clip0_2853_36380)">
<path d="M25.7501 34.3985C26.6823 34.3985 27.445 33.6358 27.445 32.7036H24.0552C24.0552 33.6358 24.8179 34.3985 25.7501 34.3985ZM30.8349 29.3137V25.0764C30.8349 22.4747 29.4535 20.2968 27.0213 19.7205V19.1442C27.0213 18.4408 26.4535 17.873 25.7501 17.873C25.0467 17.873 24.4789 18.4408 24.4789 19.1442V19.7205C22.0552 20.2968 20.6654 22.4663 20.6654 25.0764V29.3137L18.9705 31.0086V31.8561H32.5298V31.0086L30.8349 29.3137ZM29.14 30.1612H22.3603V25.0764C22.3603 22.9747 23.64 21.2629 25.7501 21.2629C27.8603 21.2629 29.14 22.9747 29.14 25.0764V30.1612Z" fill="white"/>
</g>
<defs>
<clipPath id="clip0_2853_36380">
<rect width="20.339" height="20.339" fill="white" transform="translate(15.5806 15.7544)"/>
</clipPath>
</defs>
</svg>
