<svg width="24" height="25" class="svg-menu-blue" viewBox="0 0 24 25" fill="none" xmlns="http://www.w3.org/2000/svg">
<g clip-path="url(#clip0_2952_31444)">
<path d="M7 15.5H14V17.5H7V15.5ZM7 11.5H17V13.5H7V11.5ZM7 7.5H17V9.5H7V7.5ZM19 3.5H14.82C14.4 2.34 13.3 1.5 12 1.5C10.7 1.5 9.6 2.34 9.18 3.5H5C4.86 3.5 4.73 3.51 4.6 3.54C4.21 3.62 3.86 3.82 3.59 4.09C3.41 4.27 3.26 4.49 3.16 4.73C3.06 4.96 3 5.22 3 5.5V19.5C3 19.77 3.06 20.04 3.16 20.28C3.26 20.52 3.41 20.73 3.59 20.92C3.86 21.19 4.21 21.39 4.6 21.47C4.73 21.49 4.86 21.5 5 21.5H19C20.1 21.5 21 20.6 21 19.5V5.5C21 4.4 20.1 3.5 19 3.5ZM12 3.25C12.41 3.25 12.75 3.59 12.75 4C12.75 4.41 12.41 4.75 12 4.75C11.59 4.75 11.25 4.41 11.25 4C11.25 3.59 11.59 3.25 12 3.25ZM19 19.5H5V5.5H19V19.5Z"/>
</g>
<defs>
<clipPath id="clip0_2952_31444">
<rect width="24" height="24" fill="white" transform="translate(0 0.5)"/>
</clipPath>
</defs>
</svg>
