<svg width="18" height="22" viewBox="0 0 18 22" fill="none" xmlns="http://www.w3.org/2000/svg">
<path d="M16.4348 12.2328C15.9652 12.2328 15.6522 11.9042 15.6522 11.4113V7.63264L10.6435 2.37533H1.56522V11.4113C1.56522 11.9042 1.25217 12.2328 0.782609 12.2328C0.313043 12.2328 0 11.9042 0 11.4113V2.37533C0 1.9646 0.156522 1.55388 0.469565 1.22529C0.782609 0.896713 1.17391 0.732422 1.56522 0.732422H10.9565C11.1913 0.732422 11.3478 0.814567 11.5043 0.978858L16.9826 6.72904C17.1391 6.89333 17.2174 7.05762 17.2174 7.30406V11.4113C17.2174 11.9042 16.9043 12.2328 16.4348 12.2328Z" fill="#FF0000"/>
<path d="M16.4347 8.12551H10.9564C10.4869 8.12551 10.1738 7.79693 10.1738 7.30406V1.55388C10.1738 1.061 10.4869 0.732422 10.9564 0.732422C11.426 0.732422 11.739 1.061 11.739 1.55388V6.4826H16.4347C16.9043 6.4826 17.2173 6.81119 17.2173 7.30406C17.2173 7.79693 16.9043 8.12551 16.4347 8.12551Z" fill="#FF0000"/>
<path d="M0.782609 21.2689C0.313043 21.2689 0 20.9403 0 20.4474V15.5187C0 15.0258 0.313043 14.6973 0.782609 14.6973H2.34783C2.97391 14.6973 3.6 14.9437 3.9913 15.4366C4.46087 15.8473 4.69565 16.5045 4.69565 17.1616C4.69565 17.8188 4.46087 18.476 3.9913 18.8867C3.6 19.3796 2.97391 19.626 2.34783 19.626H1.56522V20.4474C1.56522 20.9403 1.25217 21.2689 0.782609 21.2689ZM1.56522 17.9831H2.34783C2.58261 17.9831 2.73913 17.9009 2.89565 17.7366C3.05217 17.5724 3.13043 17.4081 3.13043 17.1616C3.13043 16.9152 3.05217 16.7509 2.89565 16.5866C2.73913 16.4223 2.58261 16.3402 2.34783 16.3402H1.56522V17.9831Z" fill="#FF0000"/>
<path d="M14.4779 21.2689C14.0084 21.2689 13.6953 20.9403 13.6953 20.4474V15.5187C13.6953 15.0258 14.0084 14.6973 14.4779 14.6973H17.2171C17.6866 14.6973 17.9997 15.0258 17.9997 15.5187C17.9997 16.0116 17.6866 16.3402 17.2171 16.3402H15.2605V20.4474C15.2605 20.9403 14.9475 21.2689 14.4779 21.2689Z" fill="#FF0000"/>
<path d="M16.8257 19.2152H14.4779C14.0084 19.2152 13.6953 18.8866 13.6953 18.3937C13.6953 17.9008 14.0084 17.5723 14.4779 17.5723H16.8257C17.2953 17.5723 17.6084 17.9008 17.6084 18.3937C17.6084 18.8866 17.2953 19.2152 16.8257 19.2152Z" fill="#FF0000"/>
<path d="M8.6083 21.2689H7.1996C6.73004 21.2689 6.41699 20.9403 6.41699 20.4474V15.5187C6.41699 15.0258 6.73004 14.6973 7.1996 14.6973H8.6083C9.46917 14.6973 10.2518 15.0258 10.7996 15.683C11.3474 16.258 11.7387 17.1616 11.7387 17.9831C11.7387 18.8867 11.4257 19.7081 10.7996 20.2832C10.2518 20.9403 9.46917 21.2689 8.6083 21.2689ZM7.98221 19.626H8.6083C8.9996 19.626 9.3909 19.4617 9.70395 19.1331C10.017 18.8045 10.1735 18.3938 10.1735 17.9831C10.1735 17.5724 10.017 17.1616 9.70395 16.833C9.3909 16.5045 8.9996 16.3402 8.6083 16.3402H7.98221V19.626Z" fill="#FF0000"/>
</svg>
