<svg width="15" height="13" viewBox="0 0 15 13" fill="none" xmlns="http://www.w3.org/2000/svg">
<path d="M9.83333 6.5C9.83333 5.76667 9.23333 5.16667 8.5 5.16667C7.76667 5.16667 7.16667 5.76667 7.16667 6.5C7.16667 7.23333 7.76667 7.83333 8.5 7.83333C9.23333 7.83333 9.83333 7.23333 9.83333 6.5ZM8.5 0.5C5.18667 0.5 2.5 3.18667 2.5 6.5H0.5L3.16667 9.16667L5.83333 6.5H3.83333C3.83333 3.92 5.92 1.83333 8.5 1.83333C11.08 1.83333 13.1667 3.92 13.1667 6.5C13.1667 9.08 11.08 11.1667 8.5 11.1667C7.49333 11.1667 6.56 10.84 5.79333 10.3L4.84667 11.26C5.86 12.0333 7.12667 12.5 8.5 12.5C11.8133 12.5 14.5 9.81333 14.5 6.5C14.5 3.18667 11.8133 0.5 8.5 0.5Z" fill="white"/>
</svg>
