<svg width="17" height="19" viewBox="0 0 17 19" fill="none" xmlns="http://www.w3.org/2000/svg">
<g clip-path="url(#clip0_1157_14279)">
<path d="M12.0468 2.75H3.55496C2.76946 2.75 2.13965 3.425 2.13965 4.25V14.75C2.13965 15.575 2.76946 16.25 3.55496 16.25H13.4622C14.2406 16.25 14.8775 15.575 14.8775 14.75V5.75L12.0468 2.75ZM13.4622 14.75H3.55496V4.25H11.4595L13.4622 6.3725V14.75ZM8.50856 9.5C7.33385 9.5 6.38559 10.505 6.38559 11.75C6.38559 12.995 7.33385 14 8.50856 14C9.68327 14 10.6315 12.995 10.6315 11.75C10.6315 10.505 9.68327 9.5 8.50856 9.5ZM4.26262 5H10.6315V8H4.26262V5Z" fill="#266791"/>
</g>
<defs>
<clipPath id="clip0_1157_14279">
<rect width="16.9838" height="18" fill="white" transform="translate(0.0166016 0.5)"/>
</clipPath>
</defs>
</svg>
