<svg width="13" height="13" viewBox="0 0 13 13" fill="none" xmlns="http://www.w3.org/2000/svg">
<path d="M8.83333 7.83333H8.30667L8.12 7.65333C8.77333 6.89333 9.16667 5.90667 9.16667 4.83333C9.16667 2.44 7.22667 0.5 4.83333 0.5C2.44 0.5 0.5 2.44 0.5 4.83333C0.5 7.22667 2.44 9.16667 4.83333 9.16667C5.90667 9.16667 6.89333 8.77333 7.65333 8.12L7.83333 8.30667V8.83333L11.1667 12.16L12.16 11.1667L8.83333 7.83333V7.83333ZM4.83333 7.83333C3.17333 7.83333 1.83333 6.49333 1.83333 4.83333C1.83333 3.17333 3.17333 1.83333 4.83333 1.83333C6.49333 1.83333 7.83333 3.17333 7.83333 4.83333C7.83333 6.49333 6.49333 7.83333 4.83333 7.83333Z" fill="white"/>
</svg>
