<svg width="19" height="18" viewBox="0 0 19 18" fill="none" xmlns="http://www.w3.org/2000/svg">
<g clip-path="url(#clip0_1551_21228)">
<path d="M12.4248 10.5H11.8323L11.6223 10.2975C12.3573 9.4425 12.7998 8.3325 12.7998 7.125C12.7998 4.4325 10.6173 2.25 7.9248 2.25C5.2323 2.25 3.0498 4.4325 3.0498 7.125C3.0498 9.8175 5.2323 12 7.9248 12C9.1323 12 10.2423 11.5575 11.0973 10.8225L11.2998 11.0325V11.625L15.0498 15.3675L16.1673 14.25L12.4248 10.5ZM7.9248 10.5C6.0573 10.5 4.5498 8.9925 4.5498 7.125C4.5498 5.2575 6.0573 3.75 7.9248 3.75C9.7923 3.75 11.2998 5.2575 11.2998 7.125C11.2998 8.9925 9.7923 10.5 7.9248 10.5Z" fill="#8191A4"/>
</g>
<defs>
<clipPath id="clip0_1551_21228">
<rect width="18" height="18" fill="white" transform="translate(0.799805)"/>
</clipPath>
</defs>
</svg>
