<svg width="22" height="22" class="svg-red-wheel" viewBox="0 0 22 22" fill="none" xmlns="http://www.w3.org/2000/svg">
<g clip-path="url(#clip0_2952_31533)">
<path d="M17.6677 11.8575C17.7027 11.5775 17.729 11.2975 17.729 11C17.729 10.7025 17.7027 10.4225 17.6677
 10.1425L19.514 8.69875C19.6802 8.5675 19.724 8.33125 19.619 8.13875L17.869 5.11125C17.7902 4.97125
 17.6415 4.8925 17.484 4.8925C17.4315 4.8925 17.379 4.90125 17.3352 4.91875L15.1565 5.79375C14.7015
 5.44375 14.2115 5.155 13.6777 4.93625L13.3452 2.6175C13.319 2.4075 13.1352 2.25 12.9165
 2.25H9.41648C9.19773 2.25 9.01399 2.4075 8.98774 2.6175L8.65524 4.93625C8.12149 5.155 7.63148 5.4525
 7.17649 5.79375L4.99774 4.91875C4.94524 4.90125 4.89274 4.8925 4.84024 4.8925C4.69149 4.8925 4.54274
 4.97125 4.46399 5.11125L2.71399 8.13875C2.60024 8.33125 2.65274 8.5675 2.81899 8.69875L4.66524
 10.1425C4.63024 10.4225 4.60399 10.7113 4.60399 11C4.60399 11.2887 4.63024 11.5775 4.66524
 11.8575L2.81899 13.3013C2.65274 13.4325 2.60899 13.6688 2.71399 13.8612L4.46399 16.8888C4.54274
 17.0287 4.69149 17.1075 4.84899 17.1075C4.90149 17.1075 4.95399 17.0988 4.99774 17.0813L7.17649
 16.2063C7.63148 16.5563 8.12149 16.845 8.65524 17.0638L8.98774 19.3825C9.01399 19.5925 9.19773
 19.75 9.41648 19.75H12.9165C13.1352 19.75 13.319 19.5925 13.3452 19.3825L13.6777 17.0638C14.2115
 16.845 14.7015 16.5475 15.1565 16.2063L17.3352 17.0813C17.3877 17.0988 17.4402 17.1075 17.4927
 17.1075C17.6415 17.1075 17.7902 17.0287 17.869 16.8888L19.619 13.8612C19.724 13.6688 19.6802
 13.4325 19.514 13.3013L17.6677 11.8575ZM15.9352 10.3612C15.9702 10.6325 15.979 10.8162 15.979 11C15.979 11.1838 15.9615 11.3762 15.9352 11.6388L15.8127 12.6275L16.5915 13.24L17.5365 13.975L16.924 15.0338L15.8127 14.5875L14.9027 14.22L14.1152 14.815C13.739 15.095 13.3802 15.305 13.0215 15.4538L12.094 15.83L11.954 16.8187L11.779 18H10.554L10.3877 16.8187L10.2477 15.83L9.32024 15.4538C8.94399 15.2963 8.59398 15.095 8.24398 14.8325L7.44773 14.22L6.52024 14.5963L5.40899 15.0425L4.79649 13.9837L5.74149 13.2487L6.52024 12.6362L6.39774 11.6475C6.37149 11.3763 6.35399 11.175 6.35399 11C6.35399 10.825 6.37149 10.6238 6.39774 10.3612L6.52024 9.3725L5.74149 8.76L4.79649 8.025L5.40899 6.96625L6.52024 7.4125L7.43023 7.78L8.21774 7.185C8.59399 6.905 8.95273 6.695 9.31148 6.54625L10.239 6.17L10.379 5.18125L10.554 4H11.7702L11.9365 5.18125L12.0765 6.17L13.004 6.54625C13.3802 6.70375 13.7302 6.905 14.0802 7.1675L14.8765 7.78L15.804 7.40375L16.9152 6.9575L17.5277 8.01625L16.5915 8.76L15.8127 9.3725L15.9352 10.3612ZM11.1665 7.5C9.23274 7.5 7.66648 9.06625 7.66648 11C7.66648 12.9338 9.23274 14.5 11.1665 14.5C13.1002 14.5 14.6665 12.9338 14.6665 11C14.6665 9.06625 13.1002 7.5 11.1665 7.5ZM11.1665 12.75C10.204 12.75 9.41648 11.9625 9.41648 11C9.41648 10.0375 10.204 9.25 11.1665 9.25C12.129 9.25 12.9165 10.0375 12.9165 11C12.9165 11.9625 12.129 12.75 11.1665 12.75Z"/>
</g>
<defs>
<clipPath id="clip0_2952_31533">
<rect width="21" height="21" fill="white" transform="translate(0.666504 0.5)"/>
</clipPath>
</defs>
</svg>
