<svg width="19" height="21" viewBox="0 0 19 21" fill="none" xmlns="http://www.w3.org/2000/svg">
<path d="M10.3751 2.625V3.5H8.62509V2.625H10.3751ZM9.50009 8.84625L14.2076 10.395L16.2988 11.0775L15.3188 14.5512C14.8463 14.2887 14.4963 13.93 14.3213 13.7287L13.0001 12.215L11.6788 13.72C11.3813 14.07 10.5588 14.875 9.50009 14.875C8.44134 14.875 7.61884 14.07 7.32134 13.72L6.00009 12.215L4.67884 13.72C4.50384 13.9213 4.15384 14.2713 3.68134 14.5338L2.69259 11.0687L4.79259 10.3775L9.50009 8.84625ZM12.1251 0.875H6.87509V3.5H4.25009C3.28759 3.5 2.50009 4.2875 2.50009 5.25V9.2925L1.37134 9.66C1.14384 9.73 0.951336 9.8875 0.846336 10.0975C0.741336 10.3075 0.715086 10.5525 0.793836 10.78L2.45634 16.625H2.50009C3.90009 16.625 5.14259 15.855 6.00009 14.875C6.85759 15.855 8.10009 16.625 9.50009 16.625C10.9001 16.625 12.1426 15.855 13.0001 14.875C13.8576 15.855 15.1001 16.625 16.5001 16.625H16.5438L18.1976 10.78C18.2676 10.5525 18.2501 10.3075 18.1451 10.0975C18.0401 9.8875 17.8476 9.73 17.6201 9.66L16.5001 9.2925V5.25C16.5001 4.2875 15.7126 3.5 14.7501 3.5H12.1251V0.875ZM4.25009 8.72375V5.25H14.7501V8.72375L9.50009 7L4.25009 8.72375ZM13.0001 17.22C11.9326 17.9638 10.7163 18.34 9.50009 18.34C8.28384 18.34 7.06759 17.9638 6.00009 17.22C4.93259 17.9638 3.71634 18.375 2.50009 18.375H0.750086V20.125H2.50009C3.70759 20.125 4.89759 19.8188 6.00009 19.2588C7.10259 19.8188 8.30134 20.1075 9.50009 20.1075C10.6988 20.1075 11.8976 19.8275 13.0001 19.2588C14.1026 19.8275 15.2926 20.125 16.5001 20.125H18.2501V18.375H16.5001C15.2838 18.375 14.0676 17.9638 13.0001 17.22Z" fill="#266791"/>
</svg>
