<svg width="24" height="25" class="svg-menu-blue" viewBox="0 0 24 25" fill="none" xmlns="http://www.w3.org/2000/svg">
<g clip-path="url(#clip0_2952_31461)">
<path d="M16.66 5.02043L19.49 7.85043L16.66 10.6804L13.83 7.85043L16.66 5.02043V5.02043ZM9 5.50043V9.50043H5V5.50043H9ZM19 15.5004V19.5004H15V15.5004H19ZM9 15.5004V19.5004H5V15.5004H9ZM16.66 2.19043L11 7.84043L16.66 13.5004L22.32 7.84043L16.66 2.19043ZM11 3.50043H3V11.5004H11V3.50043ZM21 13.5004H13V21.5004H21V13.5004ZM11 13.5004H3V21.5004H11V13.5004Z"/>
</g>
<defs>
<clipPath id="clip0_2952_31461">
<rect width="24" height="24" fill="white" transform="translate(0 0.5)"/>
</clipPath>
</defs>
</svg>
