<svg width="21" height="21" viewBox="0 0 21 21" fill="none" xmlns="http://www.w3.org/2000/svg">
<g clip-path="url(#clip0_1792_32835)">
<path d="M7.875 10.5C9.56375 10.5 10.9375 9.12625 10.9375 7.4375C10.9375 5.74875 9.56375 4.375 7.875 4.375C6.18625 4.375 4.8125 5.74875 4.8125 7.4375C4.8125 9.12625 6.18625 10.5 7.875 10.5ZM7.875 6.125C8.60125 6.125 9.1875 6.71125 9.1875 7.4375C9.1875 8.16375 8.60125 8.75 7.875 8.75C7.14875 8.75 6.5625 8.16375 6.5625 7.4375C6.5625 6.71125 7.14875 6.125 7.875 6.125ZM7.91875 14.875H4.17375C5.04 14.4375 6.53625 14 7.875 14C7.97125 14 8.07625 14.0087 8.1725 14.0087C8.47 13.37 8.98625 12.845 9.6075 12.425C8.96875 12.3112 8.365 12.25 7.875 12.25C5.8275 12.25 1.75 13.2738 1.75 15.3125V16.625H7.875V15.3125C7.875 15.1637 7.8925 15.015 7.91875 14.875ZM14.4375 12.6875C12.8275 12.6875 9.625 13.5712 9.625 15.3125V16.625H19.25V15.3125C19.25 13.5712 16.0475 12.6875 14.4375 12.6875ZM15.4962 11.095C16.1612 10.7188 16.625 10.01 16.625 9.1875C16.625 7.98 15.645 7 14.4375 7C13.23 7 12.25 7.98 12.25 9.1875C12.25 10.01 12.7137 10.7188 13.3787 11.095C13.6938 11.27 14.0525 11.375 14.4375 11.375C14.8225 11.375 15.1812 11.27 15.4962 11.095Z" fill="#3F9AD5"/>
</g>
<defs>
<clipPath id="clip0_1792_32835">
<rect width="21" height="21" fill="white"/>
</clipPath>
</defs>
</svg>
