<svg width="25" height="24" viewBox="0 0 19 18" fill="none" xmlns="http://www.w3.org/2000/svg">
<g clip-path="url(#clip0_3837_35108)">
<path d="M9.25 6C10.075 6 10.75 5.325 10.75 4.5C10.75 3.675 10.075 3 9.25 3C8.425 3 7.75 3.675 7.75 4.5C7.75 5.325 8.425 6 9.25 6ZM9.25 7.5C8.425 7.5 7.75 8.175 7.75 9C7.75 9.825 8.425 10.5 9.25 10.5C10.075 10.5 10.75 9.825 10.75 9C10.75 8.175 10.075 7.5 9.25 7.5ZM9.25 12C8.425 12 7.75 12.675 7.75 13.5C7.75 14.325 8.425 15 9.25 15C10.075 15 10.75 14.325 10.75 13.5C10.75 12.675 10.075 12 9.25 12Z" fill="#878787"/>
</g>
<defs>
<clipPath id="clip0_3837_35108">
<rect width="18" height="18" fill="white" transform="translate(0.25)"/>
</clipPath>
</defs>
</svg>
