<svg width="25" height="24" viewBox="0 0 25 24" fill="none" xmlns="http://www.w3.org/2000/svg">
<path d="M5.75 12C5.75 11.5858 6.08579 11.25 6.5 11.25C6.91421 11.25 7.25 11.5858 7.25 12C7.25 12.4142 6.91421 12.75 6.5 12.75C6.08579 12.75 5.75 12.4142 5.75 12ZM11.75 12C11.75 11.5858 12.0858 11.25 12.5 11.25C12.9142 11.25 13.25 11.5858 13.25 12C13.25 12.4142 12.9142 12.75 12.5 12.75C12.0858 12.75 11.75 12.4142 11.75 12ZM17.75 12C17.75 11.5858 18.0858 11.25 18.5 11.25C18.9142 11.25 19.25 11.5858 19.25 12C19.25 12.4142 18.9142 12.75 18.5 12.75C18.0858 12.75 17.75 12.4142 17.75 12Z" fill="#C5C5C5" stroke="#C5C5C5" stroke-width="1.5"/>
</svg>
