  <svg width="32" height="32" viewBox="0 0 34 34" fill="none" xmlns="http://www.w3.org/2000/svg">
<rect x="33" y="33" width="32" height="32" rx="16" transform="rotate(-180 33 33)" fill="#266791"/>
<path d="M22.1234 16.0545C22.6255 16.5752 22.6255 17.4207 22.1234 17.9413L22.1274 17.9455L15.7003 24.6095C15.1982 25.1302 14.3827 25.1302 13.8806 24.6095C13.3785 24.0889 13.3785 23.2434 13.8806 22.7228L18.1105 18.3328C19.4996 17 19.4996 17 18.1145 15.6672L13.8766 11.2772C13.3745 10.7566 13.3745 9.9111 13.8766 9.39047C14.3787 8.86984 15.1942 8.86984 15.6963 9.39047L22.1234 16.0545Z" fill="white"/>
<rect x="33" y="33" width="32" height="32" rx="16" transform="rotate(-180 33 33)" stroke="#266791"/>
</svg>
