<svg width="29" height="24" viewBox="0 0 29 24" fill="none" xmlns="http://www.w3.org/2000/svg">
<path d="M27.3841 6.94277H17.4466L15.8278 1.58526e-08H2.17176C1.28059 -0.000123061 0.555664 0.716431 0.555664 1.59705V15.4601C0.555664 16.3407 1.28059 17.0572 2.17176 17.0572H12.109L13.7278 24H27.3843C28.2752 24 29.0001 23.2836 29.0001 22.4028V8.53982C29 7.6592 28.2752 6.94277 27.3841 6.94277ZM2.4237 15.211V1.84603H14.3413L17.4574 15.211H2.4237ZM14.0259 17.0571H17.5372L14.9053 20.8286L14.0259 17.0571ZM27.1319 22.1537H16.2496L18.2665 19.2638L18.5726 19.7566C19.7932 19.0159 20.7567 18.1506 21.5174 17.27L23.8817 19.6535L24.86 18.7057L22.3565 16.1819C23.4095 14.6497 23.903 13.208 24.1097 12.4427H25.7159V11.0889H22.3133V10.2821H20.9434V11.0889H18.4132L17.877 8.7888H27.1317V22.1537H27.1319ZM19.8045 17.0571H19.8049L19.3435 15.0783L20.5501 16.2946C20.3024 16.5888 20.0296 16.8811 19.7297 17.1671L19.8058 17.058L19.8045 17.0571ZM19.789 13.5934L19.1431 14.2191L18.7289 12.4427H22.6804C22.4707 13.1038 22.0739 14.1093 21.3711 15.1884L19.789 13.5934ZM9.00304 7.60529H13.6201V8.52837C13.6201 11.0443 11.5489 13.0913 9.00304 13.0913C6.45716 13.0913 4.38601 11.0443 4.38601 8.52837C4.38601 6.01243 6.45716 3.96554 9.00304 3.96554C10.0318 3.96554 11.0052 4.29268 11.8179 4.91151L10.6778 6.37403C10.1948 6.00615 9.61576 5.81182 9.00304 5.81182C7.48732 5.81182 6.25404 7.03052 6.25404 8.52849C6.25404 10.0266 7.4872 11.2453 9.00304 11.2453C10.191 11.2453 11.2055 10.4965 11.5887 9.45157H9.00304V7.60529Z" fill="#878787"/>
</svg>
