<svg width="16" height="16" viewBox="0 0 16 16" fill="none" xmlns="http://www.w3.org/2000/svg">
<path d="M7.54821 3C4.40307 3 1.71712 5.07333 0.628906 8C1.71712 10.9267 4.40307 13 7.54821 13C10.6934 13 13.3793 10.9267 14.4675 8C13.3793 5.07333 10.6934 3 7.54821 3ZM7.54821 11.3333C5.8121 11.3333 4.40307 9.84 4.40307 8C4.40307 6.16 5.8121 4.66667 7.54821 4.66667C9.28433 4.66667 10.6934 6.16 10.6934 8C10.6934 9.84 9.28433 11.3333 7.54821 11.3333ZM7.54821 6C6.50403 6 5.66113 6.89333 5.66113 8C5.66113 9.10667 6.50403 10 7.54821 10C8.5924 10 9.4353 9.10667 9.4353 8C9.4353 6.89333 8.5924 6 7.54821 6Z" fill="#C5C5C5"/>
</svg>
