<svg width="23" height="25" viewBox="0 0 23 25" fill="none" xmlns="http://www.w3.org/2000/svg">
<g clip-path="url(#clip0_1593_23403)">
<path d="M11.6446 5C6.92688 5 2.89795 8.11 1.26562 12.5C2.89795 16.89 6.92688 20 11.6446 20C16.3623 20 20.3912 16.89 22.0236 12.5C20.3912 8.11 16.3623 5 11.6446 5ZM11.6446 17.5C9.04041 17.5 6.92688 15.26 6.92688 12.5C6.92688 9.74 9.04041 7.5 11.6446 7.5C14.2488 7.5 16.3623 9.74 16.3623 12.5C16.3623 15.26 14.2488 17.5 11.6446 17.5ZM11.6446 9.5C10.0783 9.5 8.81396 10.84 8.81396 12.5C8.81396 14.16 10.0783 15.5 11.6446 15.5C13.2109 15.5 14.4752 14.16 14.4752 12.5C14.4752 10.84 13.2109 9.5 11.6446 9.5Z" fill="#266791"/>
</g>
<defs>
<clipPath id="clip0_1593_23403">
<rect width="22.645" height="24" fill="white" transform="translate(0.322266 0.5)"/>
</clipPath>
</defs>
</svg>
