<svg width="18" height="22" viewBox="0 0 18 22" fill="none" xmlns="http://www.w3.org/2000/svg">
<path d="M11.0451 21.1861H8.18146C7.69055 21.1861 7.36328 20.8588 7.36328 20.3679V15.4588C7.36328 14.9679 7.69055 14.6406 8.18146 14.6406C8.67237 14.6406 8.99964 14.9679 8.99964 15.4588V19.5497H11.0451C11.536 19.5497 11.8633 19.877 11.8633 20.3679C11.8633 20.8588 11.536 21.1861 11.0451 21.1861Z" fill="#62996B"/>
<path d="M4.90877 21.1866C4.66331 21.1866 4.41786 21.1048 4.25422 20.8594L0.572406 15.9503C0.326951 15.623 0.408769 15.0503 0.736042 14.8048C1.06331 14.5594 1.63604 14.6412 1.8815 14.9685L5.56331 19.8776C5.80877 20.2048 5.72695 20.7776 5.39968 21.023C5.23604 21.1048 5.07241 21.1866 4.90877 21.1866Z" fill="#62996B"/>
<path d="M1.22695 21.1866C1.06331 21.1866 0.899678 21.1048 0.736042 21.023C0.408769 20.7776 0.326951 20.2048 0.572406 19.8776L4.25422 14.9685C4.49968 14.6412 5.07241 14.5594 5.39968 14.8048C5.72695 15.0503 5.80877 15.623 5.56331 15.9503L1.8815 20.8594C1.71786 21.1048 1.47241 21.1866 1.22695 21.1866Z" fill="#62996B"/>
<path d="M15.4635 21.2696C14.7272 21.2696 13.9908 21.0242 13.4181 20.6151C13.0908 20.3696 13.009 19.7969 13.2545 19.4696C13.4999 19.1424 14.0726 19.0605 14.3999 19.306C14.7272 19.5515 15.0545 19.6333 15.4635 19.6333C16.3635 19.6333 16.3635 19.306 16.3635 19.1424C16.3635 18.9787 15.8726 18.8151 15.2999 18.6515C14.3999 18.406 13.0908 18.0787 13.0908 16.6878C13.0908 15.4605 14.0726 14.5605 15.4635 14.5605C16.1999 14.5605 16.9363 14.806 17.509 15.2151C17.8363 15.4605 17.9181 16.0333 17.6726 16.3605C17.4272 16.6878 16.8545 16.7696 16.5272 16.5242C16.1999 16.2787 15.8726 16.1969 15.4635 16.1969C14.9726 16.1969 14.7272 16.3605 14.7272 16.6878C14.809 16.8515 15.3817 17.0151 15.709 17.0969C16.5272 17.3424 17.9999 17.6696 17.9999 19.1424C17.9999 20.4515 17.0181 21.2696 15.4635 21.2696Z" fill="#62996B"/>
<path d="M17.1818 12.187C16.6909 12.187 16.3636 11.8597 16.3636 11.3688V7.60515L11.1273 2.36879H1.63636V11.3688C1.63636 11.8597 1.30909 12.187 0.818182 12.187C0.327273 12.187 0 11.8597 0 11.3688V2.36879C0 1.95969 0.163636 1.5506 0.490909 1.22333C0.818182 0.896058 1.22727 0.732422 1.63636 0.732422H11.4545C11.7 0.732422 11.8636 0.81424 12.0273 0.977876L17.7545 6.70515C17.9182 6.86879 18 7.03242 18 7.27788V11.3688C18 11.8597 17.6727 12.187 17.1818 12.187Z" fill="#62996B"/>
<path d="M17.1822 8.09606H11.4549C10.964 8.09606 10.6367 7.76878 10.6367 7.27788V1.5506C10.6367 1.05969 10.964 0.732422 11.4549 0.732422C11.9458 0.732422 12.2731 1.05969 12.2731 1.5506V6.45969H17.1822C17.6731 6.45969 18.0004 6.78697 18.0004 7.27788C18.0004 7.76878 17.6731 8.09606 17.1822 8.09606Z" fill="#62996B"/>
</svg>
