<svg width="61" height="60" viewBox="0 0 61 60" fill="none" xmlns="http://www.w3.org/2000/svg">
<circle cx="30.5" cy="30" r="30" fill="#266791"/>
<path d="M15.3191 26.7589C15.415 26.7158 15.3946 26.6117 15.4323 26.5384C15.6701 26.0681 16.0363 25.7503 16.5722 25.7775C17.1988 25.8084 17.7393 25.622 18.2912 25.3608C21.344 23.9149 24.4024 22.4806 27.4663 21.0579C27.6558 20.9696 27.7335 20.9145 27.6029 20.6911C27.3757 20.2926 27.2628 19.8391 27.2768 19.3806C27.2821 18.982 27.5448 18.6868 27.9253 18.6521C28.2537 18.6227 28.5602 18.8695 28.6379 19.2409C28.7051 19.5602 28.7134 19.8939 28.9052 20.1808C28.9807 20.297 29.0561 20.3483 29.1777 20.2608C29.8231 19.7995 30.4656 19.8705 31.0906 20.291C31.3563 20.4699 31.4764 20.3582 31.6047 20.1294C31.7293 19.9119 31.7999 19.6676 31.8105 19.4171C31.8211 19.1666 31.7713 18.9173 31.6655 18.69C31.5596 18.4628 31.4007 18.2643 31.2021 18.1112C31.0036 17.9581 30.7712 17.855 30.5244 17.8104C29.5906 17.6323 29.5431 17.5771 29.5431 16.6116C29.5431 15.9798 29.5431 15.3472 29.5589 14.7154C29.5665 14.4247 29.7431 14.2353 30.0119 14.1349C30.1308 14.0887 30.2607 14.0783 30.3855 14.1052C30.5103 14.132 30.6245 14.1948 30.7139 14.2858C30.8996 14.4527 30.9404 14.6837 30.9449 14.9214C30.9449 15.3691 30.954 15.8167 30.9449 16.2636C30.9412 16.4191 30.9978 16.481 31.1359 16.5278C32.2034 16.8887 32.8775 17.6172 33.1342 18.717C33.3094 19.4319 33.194 20.1871 32.8133 20.8171C32.7061 21.0006 32.7235 21.061 32.9107 21.1485C36.1392 22.6507 39.3659 24.1575 42.5909 25.6688C42.7211 25.7322 42.8643 25.7643 43.0091 25.7624C43.3201 25.7571 43.6312 25.7556 43.9422 25.7662C44.2653 25.7749 44.5734 25.9045 44.8056 26.1294C45.0377 26.3543 45.1771 26.6581 45.1961 26.9808C45.2036 27.097 45.2006 27.2148 45.2006 27.3311V42.3881C45.2006 43.303 44.9809 43.6366 44.1528 43.9733H16.311C16.0848 43.8878 15.8794 43.7551 15.7083 43.5841C15.5373 43.4131 15.4046 43.2076 15.3191 42.9814V42.8652C15.415 42.7897 15.3757 42.6855 15.3757 42.5934C15.3757 37.4446 15.3757 32.2952 15.3757 27.1454C15.3757 27.0533 15.4142 26.9483 15.3191 26.8744V26.7589ZM29.5619 34.8694C29.5619 32.4099 29.5559 29.9505 29.5702 27.4911C29.5702 27.1982 29.4872 27.1529 29.2185 27.1544C27.1183 27.1665 25.0184 27.1665 22.9187 27.1544C22.687 27.1544 22.6115 27.1937 22.6115 27.4481C22.6206 32.3956 22.6206 37.3436 22.6115 42.2922C22.6115 42.5489 22.6915 42.5836 22.9203 42.5828C25.0295 42.5738 27.1392 42.5738 29.2494 42.5828C29.4925 42.5828 29.571 42.5428 29.5695 42.2748C29.5567 39.8071 29.5619 37.3371 29.5619 34.8694ZM37.9037 34.9011C37.9037 32.412 37.9049 29.9233 37.9074 27.4352C37.9074 27.2352 37.884 27.1537 37.6478 27.1544C35.4993 27.1657 33.3508 27.1627 31.2024 27.1544C31.0257 27.1544 30.9547 27.1793 30.9547 27.3847C30.9618 32.3715 30.9618 37.3582 30.9547 42.345C30.9547 42.5436 31.0159 42.5798 31.1986 42.5791C33.347 42.573 35.4955 42.573 37.644 42.5791C37.8704 42.5791 37.9089 42.5111 37.9082 42.3028C37.9006 39.8396 37.9037 37.3703 37.9037 34.9011ZM16.7194 34.8414C16.7194 37.3311 16.7177 39.8209 16.7142 42.3111C16.7142 42.5209 16.7527 42.5866 16.9791 42.5843C18.3113 42.5723 19.645 42.5723 20.9801 42.5843C21.1923 42.5843 21.2293 42.5209 21.2293 42.3247C21.2232 37.3545 21.2232 32.3845 21.2293 27.4149C21.2293 27.2163 21.1893 27.1544 20.9786 27.1567C19.646 27.1662 18.3136 27.1662 16.9814 27.1567C16.7512 27.1567 16.7179 27.2261 16.7179 27.433C16.723 29.9015 16.7235 32.3709 16.7194 34.8414ZM39.301 34.8414C39.301 37.3326 39.301 39.8237 39.2957 42.3111C39.2957 42.5224 39.3365 42.5866 39.5614 42.5843C40.8941 42.5723 42.2278 42.5723 43.5625 42.5843C43.7761 42.5843 43.8101 42.5194 43.8101 42.3247C43.8045 37.3545 43.8045 32.3845 43.8101 27.4149C43.8101 27.2163 43.7716 27.1544 43.5602 27.1559C42.228 27.167 40.8956 27.167 39.563 27.1559C39.3365 27.1559 39.2987 27.2254 39.2995 27.4322C39.3045 29.9012 39.305 32.3709 39.301 34.8414ZM39.415 25.7564C39.3694 25.722 39.3218 25.6905 39.2723 25.662C36.7404 24.4773 34.2084 23.2924 31.6764 22.1072C31.6211 22.0813 31.5606 22.0684 31.4995 22.0694C31.4384 22.0705 31.3783 22.0855 31.3239 22.1133C30.9554 22.2651 30.5591 22.3378 30.1608 22.3264C29.7624 22.3151 29.3709 22.2201 29.0116 22.0476C28.9531 22.0173 28.8879 22.0021 28.822 22.0033C28.7561 22.0045 28.6916 22.022 28.6342 22.0544C26.1037 23.2416 23.5722 24.427 21.0398 25.6107C20.9703 25.6431 20.8707 25.6492 20.8375 25.7564H39.415Z" fill="white"/>
<circle cx="41.678" cy="25.6302" r="3.96613" fill="white" stroke="white" stroke-width="3"/>
<g clip-path="url(#clip0_9599_18836)">
<path d="M43.498 27.9386H43.255V27.5336C43.2543 27.3946 43.2297 27.2567 43.1823 27.126C43.1796 27.1189 43.1768 27.1123 43.1735 27.1055C43.1342 26.9982 43.0798 26.8971 43.0121 26.8051L42.672 26.3514C42.5776 26.2251 42.5265 26.0717 42.5262 25.914V25.6686C42.5268 25.4755 42.6034 25.2903 42.7396 25.1533L42.8993 24.9937C43.0848 24.8072 43.204 24.5649 43.2385 24.3041C43.2386 24.3007 43.2404 24.2979 43.2404 24.2945L43.2398 24.2912C43.2482 24.2395 43.2533 24.1872 43.255 24.1349V23.5657H43.498C43.5624 23.5657 43.6242 23.5401 43.6698 23.4946C43.7153 23.449 43.7409 23.3872 43.7409 23.3228C43.7409 23.2583 43.7153 23.1965 43.6698 23.151C43.6242 23.1054 43.5624 23.0798 43.498 23.0798H40.0968C40.0324 23.0798 39.9706 23.1054 39.925 23.151C39.8795 23.1965 39.8539 23.2583 39.8539 23.3228C39.8539 23.3872 39.8795 23.449 39.925 23.4946C39.9706 23.5401 40.0324 23.5657 40.0968 23.5657H40.3398V24.1349C40.3415 24.1872 40.3466 24.2395 40.355 24.2912L40.3544 24.2945C40.3544 24.2979 40.3562 24.3008 40.3563 24.3041C40.3908 24.5649 40.51 24.8072 40.6955 24.9937L40.8552 25.1534C40.9913 25.2903 41.068 25.4755 41.0686 25.6686V25.914C41.0683 26.0716 41.0172 26.225 40.9229 26.3514L40.5826 26.805C40.5149 26.8971 40.4605 26.9983 40.4212 27.1056C40.4179 27.1123 40.4152 27.1189 40.4125 27.1259C40.3651 27.2567 40.3405 27.3946 40.3398 27.5336V27.9386H40.0968C40.0324 27.9386 39.9706 27.9642 39.925 28.0098C39.8795 28.0553 39.8539 28.1171 39.8539 28.1816C39.8539 28.246 39.8795 28.3078 39.925 28.3533C39.9706 28.3989 40.0324 28.4245 40.0968 28.4245H43.498C43.5624 28.4245 43.6242 28.3989 43.6698 28.3533C43.7153 28.3078 43.7409 28.246 43.7409 28.1816C43.7409 28.1171 43.7153 28.0553 43.6698 28.0098C43.6242 27.9642 43.5624 27.9386 43.498 27.9386ZM40.8256 24.0516V23.5657H42.7692V24.0516H40.8256ZM41.039 24.6502C41.0048 24.6158 40.9741 24.578 40.9475 24.5375H42.6473C42.6207 24.578 42.59 24.6158 42.5557 24.6502L42.3961 24.8098C42.2066 24.9982 42.0851 25.2442 42.0507 25.5092H41.5441C41.5097 25.2442 41.3882 24.9982 41.1987 24.8098L41.039 24.6502ZM41.3116 26.6428C41.4522 26.4544 41.5356 26.2296 41.5517 25.9951H42.0431C42.0592 26.2296 42.1426 26.4545 42.2833 26.6428L42.5262 26.9669H41.0685L41.3116 26.6428ZM42.7692 27.9386H40.8256V27.5336C40.8263 27.5066 40.8285 27.4796 40.8323 27.4527H42.7625C42.7663 27.4796 42.7685 27.5066 42.7692 27.5336V27.9386Z" fill="#266791"/>
</g>
<defs>
<clipPath id="clip0_9599_18836">
<rect width="5.83054" height="5.83054" fill="white" transform="translate(38.8842 22.8364)"/>
</clipPath>
</defs>
</svg>
