<svg width="61" height="60" viewBox="0 0 61 60" fill="none" xmlns="http://www.w3.org/2000/svg">
<circle cx="30.5" cy="30" r="30" fill="#8191A4"/>
<path d="M31.6228 17.5358V18.8941H28.9241V17.5358H31.6228ZM30.2734 27.193L37.5328 29.5971L40.7577 30.6565L39.2465 36.0488C38.5178 35.6413 37.9781 35.0844 37.7082 34.772L35.6707 32.4223L33.6333 34.7584C33.1745 35.3017 31.9061 36.5513 30.2734 36.5513C28.6407 36.5513 27.3724 35.3017 26.9136 34.7584L24.8761 32.4223L22.8386 34.7584C22.5687 35.0708 22.029 35.6141 21.3004 36.0216L19.7756 30.6429L23.014 29.5699L30.2734 27.193ZM34.3214 14.8193H26.2254V18.8941H22.1774C20.6932 18.8941 19.4788 20.1165 19.4788 21.6106V27.8857L17.7381 28.4562C17.3873 28.5648 17.0905 28.8093 16.9285 29.1353C16.7666 29.4613 16.7261 29.8416 16.8476 30.1947L19.4113 39.2678H19.4788C21.6377 39.2678 23.5538 38.0726 24.8761 36.5513C26.1984 38.0726 28.1145 39.2678 30.2734 39.2678C32.4324 39.2678 34.3484 38.0726 35.6707 36.5513C36.9931 38.0726 38.9091 39.2678 41.0681 39.2678H41.1355L43.6858 30.1947C43.7937 29.8416 43.7667 29.4613 43.6048 29.1353C43.4429 28.8093 43.146 28.5648 42.7952 28.4562L41.0681 27.8857V21.6106C41.0681 20.1165 39.8537 18.8941 38.3694 18.8941H34.3214V14.8193ZM22.1774 27.0028V21.6106H38.3694V27.0028L30.2734 24.3271L22.1774 27.0028ZM35.6707 40.1914C34.0246 41.346 32.149 41.93 30.2734 41.93C28.3979 41.93 26.5223 41.346 24.8761 40.1914C23.2299 41.346 21.3544 41.9843 19.4788 41.9843H16.7801V44.7008H19.4788C21.3409 44.7008 23.1759 44.2255 24.8761 43.3562C26.5763 44.2255 28.4248 44.6737 30.2734 44.6737C32.122 44.6737 33.9706 44.239 35.6707 43.3562C37.3709 44.239 39.206 44.7008 41.0681 44.7008H43.7667V41.9843H41.0681C39.1925 41.9843 37.3169 41.346 35.6707 40.1914Z" fill="white"/>
</svg>
