<svg width="61" height="60" viewBox="0 0 61 60" fill="none" xmlns="http://www.w3.org/2000/svg">
<circle cx="30.5" cy="30" r="30" fill="#62996B"/>
<path d="M15.3191 27.0089C15.415 26.9658 15.3946 26.8617 15.4323 26.7884C15.6701 26.3181 16.0363 26.0003 16.5722 26.0275C17.1988 26.0584 17.7393 25.872 18.2912 25.6108C21.344 24.1649 24.4024 22.7306 27.4663 21.3079C27.6558 21.2196 27.7335 21.1645 27.6029 20.9411C27.3757 20.5426 27.2628 20.0891 27.2768 19.6306C27.2821 19.232 27.5448 18.9368 27.9253 18.9021C28.2537 18.8727 28.5602 19.1195 28.6379 19.4909C28.7051 19.8102 28.7134 20.1439 28.9052 20.4308C28.9807 20.547 29.0561 20.5983 29.1777 20.5108C29.8231 20.0495 30.4656 20.1205 31.0906 20.541C31.3563 20.7199 31.4764 20.6082 31.6047 20.3794C31.7293 20.1619 31.7999 19.9176 31.8105 19.6671C31.8211 19.4166 31.7713 19.1673 31.6655 18.94C31.5596 18.7128 31.4007 18.5143 31.2021 18.3612C31.0036 18.2081 30.7712 18.105 30.5244 18.0604C29.5906 17.8823 29.5431 17.8271 29.5431 16.8616C29.5431 16.2298 29.5431 15.5972 29.5589 14.9654C29.5665 14.6747 29.7431 14.4853 30.0119 14.3849C30.1308 14.3387 30.2607 14.3283 30.3855 14.3552C30.5103 14.382 30.6245 14.4448 30.7139 14.5358C30.8996 14.7027 30.9404 14.9337 30.9449 15.1714C30.9449 15.6191 30.954 16.0667 30.9449 16.5136C30.9412 16.6691 30.9978 16.731 31.1359 16.7778C32.2034 17.1387 32.8775 17.8672 33.1342 18.967C33.3094 19.6819 33.194 20.4371 32.8133 21.0671C32.7061 21.2506 32.7235 21.311 32.9107 21.3985C36.1392 22.9007 39.3659 24.4075 42.5909 25.9188C42.7211 25.9822 42.8643 26.0143 43.0091 26.0124C43.3201 26.0071 43.6312 26.0056 43.9422 26.0162C44.2653 26.0249 44.5734 26.1545 44.8056 26.3794C45.0377 26.6043 45.1771 26.9081 45.1961 27.2308C45.2036 27.347 45.2006 27.4648 45.2006 27.5811V42.6381C45.2006 43.553 44.9809 43.8866 44.1528 44.2233H16.311C16.0848 44.1378 15.8794 44.0051 15.7083 43.8341C15.5373 43.6631 15.4046 43.4576 15.3191 43.2314V43.1152C15.415 43.0397 15.3757 42.9355 15.3757 42.8434C15.3757 37.6946 15.3757 32.5452 15.3757 27.3954C15.3757 27.3033 15.4142 27.1983 15.3191 27.1244V27.0089ZM29.5619 35.1194C29.5619 32.6599 29.5559 30.2005 29.5702 27.7411C29.5702 27.4482 29.4872 27.4029 29.2185 27.4044C27.1183 27.4165 25.0184 27.4165 22.9187 27.4044C22.687 27.4044 22.6115 27.4437 22.6115 27.6981C22.6206 32.6456 22.6206 37.5936 22.6115 42.5422C22.6115 42.7989 22.6915 42.8336 22.9203 42.8328C25.0295 42.8238 27.1392 42.8238 29.2494 42.8328C29.4925 42.8328 29.571 42.7928 29.5695 42.5248C29.5567 40.0571 29.5619 37.5871 29.5619 35.1194ZM37.9037 35.1511C37.9037 32.662 37.9049 30.1733 37.9074 27.6852C37.9074 27.4852 37.884 27.4037 37.6478 27.4044C35.4993 27.4157 33.3508 27.4127 31.2024 27.4044C31.0257 27.4044 30.9547 27.4293 30.9547 27.6347C30.9618 32.6215 30.9618 37.6082 30.9547 42.595C30.9547 42.7936 31.0159 42.8298 31.1986 42.8291C33.347 42.823 35.4955 42.823 37.644 42.8291C37.8704 42.8291 37.9089 42.7611 37.9082 42.5528C37.9006 40.0896 37.9037 37.6203 37.9037 35.1511ZM16.7194 35.0914C16.7194 37.5811 16.7177 40.0709 16.7142 42.5611C16.7142 42.7709 16.7527 42.8366 16.9791 42.8343C18.3113 42.8223 19.645 42.8223 20.9801 42.8343C21.1923 42.8343 21.2293 42.7709 21.2293 42.5747C21.2232 37.6045 21.2232 32.6345 21.2293 27.6649C21.2293 27.4663 21.1893 27.4044 20.9786 27.4067C19.646 27.4162 18.3136 27.4162 16.9814 27.4067C16.7512 27.4067 16.7179 27.4761 16.7179 27.683C16.723 30.1515 16.7235 32.6209 16.7194 35.0914ZM39.301 35.0914C39.301 37.5826 39.301 40.0737 39.2957 42.5611C39.2957 42.7724 39.3365 42.8366 39.5614 42.8343C40.8941 42.8223 42.2278 42.8223 43.5625 42.8343C43.7761 42.8343 43.8101 42.7694 43.8101 42.5747C43.8045 37.6045 43.8045 32.6345 43.8101 27.6649C43.8101 27.4663 43.7716 27.4044 43.5602 27.4059C42.228 27.417 40.8956 27.417 39.563 27.4059C39.3365 27.4059 39.2987 27.4754 39.2995 27.6822C39.3045 30.1512 39.305 32.6209 39.301 35.0914ZM39.415 26.0064C39.3694 25.972 39.3218 25.9405 39.2723 25.912C36.7404 24.7273 34.2084 23.5424 31.6764 22.3572C31.6211 22.3313 31.5606 22.3184 31.4995 22.3194C31.4384 22.3205 31.3783 22.3355 31.3239 22.3633C30.9554 22.5151 30.5591 22.5878 30.1608 22.5764C29.7624 22.5651 29.3709 22.4701 29.0116 22.2976C28.9531 22.2673 28.8879 22.2521 28.822 22.2533C28.7561 22.2545 28.6916 22.272 28.6342 22.3044C26.1037 23.4916 23.5722 24.677 21.0398 25.8607C20.9703 25.8931 20.8707 25.8992 20.8375 26.0064H39.415Z" fill="white"/>
<circle cx="41.6785" cy="25.8802" r="3.96613" fill="#62996B" stroke="white" stroke-width="3"/>
<path d="M41.6786 20.8999C38.9284 20.8999 36.6984 23.1299 36.6984 25.8802C36.6984 28.6304 38.9284 30.8604 41.6786 30.8604C44.4289 30.8604 46.6589 28.6304 46.6589 25.8802C46.6589 23.1299 44.4289 20.8999 41.6786 20.8999ZM43.8297 24.2538L41.4885 27.4998C41.4558 27.5455 41.4127 27.5827 41.3627 27.6084C41.3127 27.6341 41.2573 27.6475 41.2012 27.6475C41.145 27.6475 41.0896 27.6341 41.0396 27.6084C40.9896 27.5827 40.9465 27.5455 40.9138 27.4998L39.5275 25.5789C39.4853 25.52 39.5275 25.4377 39.5998 25.4377H40.1212C40.2346 25.4377 40.3424 25.4922 40.4091 25.5856L41.2006 26.6839L42.9481 24.2605C43.0148 24.1682 43.1216 24.1126 43.2361 24.1126H43.7574C43.8297 24.1126 43.8719 24.1949 43.8297 24.2538Z" fill="white"/>
</svg>
