<svg xmlns="http://www.w3.org/2000/svg" width="20.001" height="20.001" viewBox="0 0 20.001 20.001">
  <g id="_01_Icons_Line_chat" data-name="01) Icons / Line /  chat" transform="translate(-2 -2)">
    <path id="Shape" d="M19.5,20a.507.507,0,0,1-.14-.02l-3.224-.922a7.5,7.5,0,0,1-10.818-4.38,7.535,7.535,0,0,1-1.46-.619l-3.224.921A.509.509,0,0,1,.5,15a.5.5,0,0,1-.4-.2.5.5,0,0,1-.081-.438l.922-3.224A7.5,7.5,0,1,1,14.679,5.322,7.5,7.5,0,0,1,19.06,16.139l.922,3.224a.5.5,0,0,1-.081.438A.5.5,0,0,1,19.5,20ZM6.469,14.929a6.5,6.5,0,0,0,9.348,3.162.505.505,0,0,1,.257-.07.5.5,0,0,1,.137.019l2.561.733-.732-2.562a.5.5,0,0,1,.051-.392A6.5,6.5,0,0,0,14.93,6.469a7.5,7.5,0,0,1-8.461,8.46ZM3.928,13.021a.493.493,0,0,1,.255.071A6.5,6.5,0,1,0,1.91,10.817a.5.5,0,0,1,.05.393l-.732,2.561,2.562-.732A.5.5,0,0,1,3.928,13.021Z" transform="translate(2 2)" fill="#0e142d"/>
  </g>
</svg>
