<svg width="12" height="13" viewBox="0 0 12 13" fill="none" xmlns="http://www.w3.org/2000/svg">
<path d="M6.58317 3.58341H5.4165V5.91675H3.08317V7.08341H5.4165V9.41675H6.58317V7.08341H8.9165V5.91675H6.58317V3.58341ZM5.99984 0.666748C2.77984 0.666748 0.166504 3.28008 0.166504 6.50008C0.166504 9.72008 2.77984 12.3334 5.99984 12.3334C9.21984 12.3334 11.8332 9.72008 11.8332 6.50008C11.8332 3.28008 9.21984 0.666748 5.99984 0.666748ZM5.99984 11.1667C3.42734 11.1667 1.33317 9.07258 1.33317 6.50008C1.33317 3.92758 3.42734 1.83341 5.99984 1.83341C8.57234 1.83341 10.6665 3.92758 10.6665 6.50008C10.6665 9.07258 8.57234 11.1667 5.99984 11.1667Z" fill="#266791"/>
</svg>
