<svg xmlns="http://www.w3.org/2000/svg" width="19.999" height="17.994" viewBox="0 0 19.999 17.994">
  <g id="_01_Icons_Line_diamond" data-name="01) Icons / Line /  diamond" transform="translate(-2.001 -3)">
    <path id="diamond" d="M10,17.994a.486.486,0,0,1-.237-.062.234.234,0,0,1-.046-.032l-.02-.016a.3.3,0,0,0-.029-.019.163.163,0,0,1-.046-.037l-9.5-11a.5.5,0,0,1-.038-.6l4-6L4.09.218A.474.474,0,0,1,4.252.07.182.182,0,0,1,4.286.056l.026-.01L4.344.033A.248.248,0,0,1,4.418.007h.048a.048.048,0,0,0,.016,0A.051.051,0,0,1,4.5,0h11a.051.051,0,0,1,.017,0,.045.045,0,0,0,.014,0h.05a.263.263,0,0,1,.073.025l.033.014.025.01a.206.206,0,0,1,.034.014.475.475,0,0,1,.164.148l0,.005,4,6a.5.5,0,0,1-.036.6l-9.5,11a.188.188,0,0,1-.046.035.287.287,0,0,0-.03.02l-.014.012a.252.252,0,0,1-.052.038A.486.486,0,0,1,10,17.994ZM6.245,7,10,16.18,13.755,7Zm8.59,0h0l-3.215,7.858L18.406,7h-3.57ZM1.592,7l6.787,7.858L5.163,7ZM15.785,1.83h0L15.089,6h3.475L15.785,1.83ZM10,1.333,6.5,6h7Zm-5.786.5L1.434,6H4.91ZM11,1h0l3.2,4.265L14.909,1H11ZM5.089,1,5.8,5.265,9,1Z" transform="translate(2 3)" fill="#0e142d"/>
  </g>
</svg>
