<svg xmlns="http://www.w3.org/2000/svg" width="18" height="13" viewBox="0 0 18 13">
  <g id="_01_Icons_Line_draw-text-field" data-name="01) Icons / Line /  draw-text-field" transform="translate(-3 -6)">
    <path id="draw-text-field" d="M15.5,13H3.5A2.5,2.5,0,0,1,1,10.5v-1a.5.5,0,1,1,1,0v1A1.5,1.5,0,0,0,3.5,12h12A1.5,1.5,0,0,0,17,10.5v-8A1.5,1.5,0,0,0,15.5,1h-6a.5.5,0,1,1,0-1h6A2.5,2.5,0,0,1,18,2.5v8A2.5,2.5,0,0,1,15.5,13ZM5.5,7h-4a.5.5,0,1,1,0-1H3V1H1v.5a.5.5,0,0,1-1,0V.5A.5.5,0,0,1,.5,0h6A.5.5,0,0,1,7,.5v1a.5.5,0,0,1-1,0V1H4V6H5.5a.5.5,0,1,1,0,1Z" transform="translate(3 6)" fill="#0e142d"/>
  </g>
</svg>
