<svg xmlns="http://www.w3.org/2000/svg" width="18.015" height="18.001" viewBox="0 0 18.015 18.001">
  <g id="_01_Icons_Line_edit-square" data-name="01) Icons / Line /  edit-square" transform="translate(-2.986 -2.999)">
    <path id="edit-square" d="M15.514,18H2.5A2.5,2.5,0,0,1,0,15.5V2.5A2.5,2.5,0,0,1,2.5,0H9.514a.5.5,0,0,1,0,1H2.5A1.5,1.5,0,0,0,1,2.5v13A1.5,1.5,0,0,0,2.5,17H15.514a1.5,1.5,0,0,0,1.5-1.5v-7a.5.5,0,0,1,1,0v7A2.5,2.5,0,0,1,15.514,18Zm-6-7h-2a.5.5,0,0,1-.5-.5v-2a.5.5,0,0,1,.147-.354l8-8a.5.5,0,0,1,.708,0l2,2a.5.5,0,0,1,0,.708l-8,8A.5.5,0,0,1,9.514,11Zm6-9.793h0l-7.5,7.5V10H9.307l7.5-7.5L15.514,1.208Z" transform="translate(2.986 2.999)" fill="#0e142d"/>
  </g>
</svg>
