<svg xmlns="http://www.w3.org/2000/svg" width="14" height="18.007" viewBox="0 0 14 18.007">
  <g id="_01_Icons_Line_flag" data-name="01) Icons / Line /  flag" transform="translate(-6 -2.993)">
    <path id="flag" d="M.5,18.007a.5.5,0,0,1-.5-.5V1.5A1.5,1.5,0,0,1,1.5,0h5A1.5,1.5,0,0,1,8,1.5v.507h5.5a.5.5,0,0,1,.4.8l-2.775,3.7,2.775,3.7a.5.5,0,0,1-.4.8h-5A1.5,1.5,0,0,1,7,9.507a.5.5,0,0,0-.5-.5H1v8.5A.5.5,0,0,1,.5,18.007ZM1.5,1a.5.5,0,0,0-.5.5V8.007H6.5A1.5,1.5,0,0,1,8,9.507a.5.5,0,0,0,.5.5h4l-2.4-3.2a.5.5,0,0,1,0-.6l2.4-3.2H8v1.5a.5.5,0,0,1-1,0V1.5A.5.5,0,0,0,6.5,1Z" transform="translate(6 2.993)" fill="#0e142d"/>
  </g>
</svg>
