<svg xmlns="http://www.w3.org/2000/svg" width="19" height="17" viewBox="0 0 19 17">
  <g id="_01_Icons_Line_import" data-name="01) Icons / Line /  import" transform="translate(-3 -3)">
    <path id="import" d="M16.5,17H2.5A2.5,2.5,0,0,1,0,14.5V4.5A2.5,2.5,0,0,1,2.5,2h1a.5.5,0,0,1,0,1h-1A1.5,1.5,0,0,0,1,4.5v10A1.5,1.5,0,0,0,2.5,16h14A1.5,1.5,0,0,0,18,14.5V4.5A1.5,1.5,0,0,0,16.5,3h-1a.5.5,0,0,1,0-1h1A2.5,2.5,0,0,1,19,4.5v10A2.5,2.5,0,0,1,16.5,17Zm-7-4a.5.5,0,0,1-.355-.147l-3-3a.5.5,0,0,1,.708-.708L9,11.293V.5a.5.5,0,1,1,1,0V11.293l2.146-2.147a.5.5,0,0,1,.707.708l-3,3A.5.5,0,0,1,9.5,13Z" transform="translate(3 3)" fill="#0e142d"/>
  </g>
</svg>
