<svg xmlns="http://www.w3.org/2000/svg" width="20" height="16" viewBox="0 0 20 16">
  <g id="_01_Icons_Line_interview" data-name="01) Icons / Line /  interview" transform="translate(-2 -5.001)">
    <path id="interview" d="M11.5,16h-9A2.5,2.5,0,0,1,0,13.5V11.673A2.5,2.5,0,0,1,.643,10H.5a.5.5,0,1,1,0-1H2.162L4.2,7.859a4,4,0,1,1,6.788-2.606l.537-.55a3,3,0,1,1,4.942,0l.005,0,1.814,1.864A2.488,2.488,0,0,1,19,8.312V9h.5a.5.5,0,0,1,0,1H13.357A2.5,2.5,0,0,1,14,11.673V13.5A2.5,2.5,0,0,1,11.5,16ZM5.086,8.512h0L1.769,10.364A1.5,1.5,0,0,0,1,11.673V13.5A1.5,1.5,0,0,0,2.5,15h9A1.5,1.5,0,0,0,13,13.5V11.673a1.5,1.5,0,0,0-.769-1.309L11.572,10a.5.5,0,0,1-.329-.184l-2.327-1.3A4,4,0,0,1,7.006,9H6.995a4,4,0,0,1-1.909-.487Zm7.142-3.093-1.8,1.845a3.828,3.828,0,0,0-.293.317A.542.542,0,0,0,10,7.973L11.84,9H18V8.312a1.5,1.5,0,0,0-.425-1.048l-1.8-1.847A2.968,2.968,0,0,1,14,6H14A2.965,2.965,0,0,1,12.228,5.419ZM7,2a3,3,0,1,0,3,3A3,3,0,0,0,7,2Zm7-1a2,2,0,1,0,2,2A2,2,0,0,0,14,1Z" transform="translate(2 5.001)" fill="#0e142d"/>
  </g>
</svg>
