<svg xmlns="http://www.w3.org/2000/svg" width="12" height="22" viewBox="0 0 12 22">
  <g id="_01_Icons_Line_smart-watch-time" data-name="01) Icons / Line /  smart-watch-time" transform="translate(-6 -1)">
    <path id="smart-watch-time" d="M8.5,22h-5a.5.5,0,0,1-.493-.418l-1-6A.5.5,0,0,1,2,15.472,6,6,0,0,1,2,6.527a.5.5,0,0,1,.007-.11l1-6A.5.5,0,0,1,3.5,0h5a.5.5,0,0,1,.493.418l1,6a.5.5,0,0,1,.006.11,6,6,0,0,1,0,8.945.5.5,0,0,1-.007.11l-1,6A.5.5,0,0,1,8.5,22ZM3.136,16.274h0L3.924,21H8.076l.788-4.726A6,6,0,0,1,6.011,17H5.99a6,6,0,0,1-2.854-.726ZM6,6a5,5,0,1,0,5,5A5.006,5.006,0,0,0,6,6ZM5.99,5H6a6.015,6.015,0,0,1,2.864.725L8.076,1H3.924L3.136,5.726A6,6,0,0,1,5.99,5ZM8.5,13a.5.5,0,0,1-.257-.071l-2.5-1.5a.5.5,0,0,1-.233-.33l-.5-2.5a.5.5,0,1,1,.98-.2l.456,2.282,2.31,1.386A.5.5,0,0,1,8.5,13Z" transform="translate(6 1)" fill="#0e142d"/>
  </g>
</svg>
