<svg xmlns="http://www.w3.org/2000/svg" width="17.001" height="16.01" viewBox="0 0 17.001 16.01">
  <g id="_01_Icons_Line_sort-amount-up" data-name="01) Icons / Line /  sort-amount-up" transform="translate(-4 -3.998)">
    <path id="sort-amount-up" d="M3.5,16.01a.5.5,0,0,1-.5-.5V1.71L.855,3.855a.5.5,0,1,1-.708-.707l3-3a.5.5,0,0,1,.708,0l3,3a.5.5,0,0,1-.707.707L4,1.709v13.8A.5.5,0,0,1,3.5,16.01ZM10.5,14h-2a.5.5,0,0,1,0-1h2a.5.5,0,1,1,0,1Zm2-4h-4a.5.5,0,0,1,0-1h4a.5.5,0,0,1,0,1Zm2-4h-6a.5.5,0,0,1,0-1h6a.5.5,0,0,1,0,1Zm2-4h-8a.5.5,0,0,1,0-1h8a.5.5,0,1,1,0,1Z" transform="translate(3.999 3.998)" fill="#121924"/>
  </g>
</svg>
