<svg xmlns="http://www.w3.org/2000/svg" width="16.004" height="16.01" viewBox="0 0 16.004 16.01">
  <g id="_01_Icons_Line_sort-numeric-up" data-name="01) Icons / Line /  sort-numeric-up" transform="translate(-4 -3.998)">
    <path id="sort-numeric-up" d="M3.5,16.01a.5.5,0,0,1-.5-.5V1.71L.855,3.855a.5.5,0,1,1-.708-.707l3-3a.5.5,0,0,1,.708,0l3,3a.5.5,0,0,1-.707.707L4,1.709v13.8A.5.5,0,0,1,3.5,16.01Zm9-.008a.5.5,0,0,1-.412-.782L13.608,13l-.055,0H13.5a2.5,2.5,0,1,1,2.014-1.018L15.5,12l0,.006-2.587,3.78A.5.5,0,0,1,12.5,16Zm1-7A1.5,1.5,0,1,0,15,10.5,1.5,1.5,0,0,0,13.5,9Zm1-2h-2a.5.5,0,1,1,0-1H13V1.709l-.146.147a.5.5,0,0,1-.708,0,.5.5,0,0,1,0-.708l1-1A.505.505,0,0,1,13.5,0a.494.494,0,0,1,.191.038A.5.5,0,0,1,14,.5V6h.5a.5.5,0,0,1,0,1Z" transform="translate(3.999 3.998)" fill="#121924"/>
  </g>
</svg>
