<svg xmlns="http://www.w3.org/2000/svg" width="16.003" height="16.009" viewBox="0 0 16.003 16.009">
  <g id="_01_Icons_Line_sort-numeric-down" data-name="01) Icons / Line /  sort-numeric-down" transform="translate(-4 -3.999)">
    <path id="sort-numeric-down" d="M3.5,16.009a.5.5,0,0,1-.4-.205L.147,12.854a.5.5,0,1,1,.707-.707L3,14.294V.5a.5.5,0,1,1,1,0V14.294l2.146-2.147a.5.5,0,1,1,.708.707L3.9,15.8A.5.5,0,0,1,3.5,16.009Zm9-.008a.5.5,0,0,1-.413-.782L13.607,13l-.055,0H13.5a2.5,2.5,0,1,1,2.015-1.018l-.006.01L15.5,12l-2.587,3.78A.5.5,0,0,1,12.5,16Zm1-7A1.5,1.5,0,1,0,15,10.5,1.5,1.5,0,0,0,13.5,9Zm1-2h-2a.5.5,0,0,1,0-1H13V1.708l-.146.147a.5.5,0,0,1-.708-.708l1-1A.5.5,0,0,1,14,.5V6h.5a.5.5,0,1,1,0,1Z" transform="translate(4 3.999)" fill="#121924"/>
  </g>
</svg>
