<svg xmlns="http://www.w3.org/2000/svg" width="15" height="16.009" viewBox="0 0 15 16.009">
  <g id="_01_Icons_Line_sort-alphabetic-down" data-name="01) Icons / Line /  sort-alphabetic-down" transform="translate(-4 -3.999)">
    <path id="sort-alphabetic-down" d="M3.5,16.009a.5.5,0,0,1-.4-.205L.147,12.854a.5.5,0,0,1,.707-.707L3,14.294V.5a.5.5,0,0,1,1,0V14.294l2.146-2.147a.5.5,0,0,1,.708.708L3.9,15.8A.5.5,0,0,1,3.5,16.009ZM13,16H9.5a.5.5,0,0,1-.5-.5v-6A.5.5,0,0,1,9.5,9H13a2,2,0,0,1,1.323,3.5A2,2,0,0,1,13,16Zm-3-3v2h3a1,1,0,0,0,0-2Zm0-3v2h3a1,1,0,1,0,0-2ZM9.5,7a.5.5,0,0,1-.462-.692l2.5-6a.5.5,0,0,1,.924,0l2.5,6a.5.5,0,0,1-.924.383L13.334,5H10.668L9.962,6.692A.5.5,0,0,1,9.5,7ZM12,1.8h0L11.083,4h1.834L12,1.8Z" transform="translate(4 3.999)" fill="#121924"/>
  </g>
</svg>
