<svg xmlns="http://www.w3.org/2000/svg" width="18" height="18" viewBox="0 0 18 18">
  <g id="_01_Icons_Line_three-v" data-name="01) Icons / Line /  three-v" transform="translate(-3 -3)">
    <path id="three-v" d="M15.5,18H2.5A2.5,2.5,0,0,1,0,15.5V2.5A2.5,2.5,0,0,1,2.5,0h13A2.5,2.5,0,0,1,18,2.5v13A2.5,2.5,0,0,1,15.5,18ZM13,1V17h2.5A1.5,1.5,0,0,0,17,15.5V2.5A1.5,1.5,0,0,0,15.5,1ZM6,1V17h6V1ZM2.5,1A1.5,1.5,0,0,0,1,2.5v13A1.5,1.5,0,0,0,2.5,17H5V1Z" transform="translate(3 3)" fill="#0e142d"/>
  </g>
</svg>
