<?xml version="1.0" encoding="UTF-8" standalone="no"?><!DOCTYPE svg PUBLIC "-//W3C//DTD SVG 1.1//EN" "http://www.w3.org/Graphics/SVG/1.1/DTD/svg11.dtd"><svg width="100%" height="100%" viewBox="0 0 75 75" version="1.1" xmlns="http://www.w3.org/2000/svg" xmlns:xlink="http://www.w3.org/1999/xlink" xml:space="preserve" xmlns:serif="http://www.serif.com/" style="fill-rule:evenodd;clip-rule:evenodd;stroke-linejoin:round;stroke-miterlimit:2;"><g id="Unlinked"><path d="M10.165,41.052c-6.568,6.568 -6.568,17.216 -0,23.783c6.567,6.568 17.215,6.568 23.783,0l-2.973,-2.973c-4.926,4.926 -12.912,4.926 -17.837,0c-4.926,-4.925 -4.926,-12.911 -0,-17.837l-2.973,-2.973Z" style="fill:#0e142d;"/><path d="M53.651,50.616l-29.267,-29.267l-2.946,2.946l29.267,29.267l2.946,-2.946Z" style="fill:#0e142d;"/><path d="M19.965,31.252l-9.8,9.8l2.946,2.946l9.8,-9.799l-2.946,-2.947Z" style="fill:#0e142d;"/><path d="M40.801,52.089l-9.799,9.8l2.946,2.946l9.8,-9.8l-2.947,-2.946Z" style="fill:#0e142d;"/><path d="M64.835,33.948c6.568,-6.568 6.568,-17.216 0,-23.783c-6.567,-6.568 -17.215,-6.568 -23.783,-0l2.973,2.973c4.926,-4.926 12.912,-4.926 17.837,-0c4.926,4.925 4.926,12.911 0,17.837l2.973,2.973Z" style="fill:#0e142d;"/><path d="M55.124,43.659l9.711,-9.711l-2.946,-2.946l-9.711,9.71l2.946,2.947Z" style="fill:#0e142d;"/><path d="M34.288,22.822l9.71,-9.711l-2.946,-2.946l-9.711,9.711l2.947,2.946Z" style="fill:#0e142d;"/></g></svg>