<svg xmlns="http://www.w3.org/2000/svg" width="20" height="20" viewBox="0 0 20 20">
  <g id="_01_Icons_Line_user-circle" data-name="01) Icons / Line /  user-circle" transform="translate(-2 -2)">
    <path id="user-circle" d="M10,20A10,10,0,1,1,20,10,10.011,10.011,0,0,1,10,20ZM7.963,13.567,3.88,15.423a1.485,1.485,0,0,0-.628.533A8.985,8.985,0,0,0,9.99,19h.022a8.981,8.981,0,0,0,6.736-3.044,1.488,1.488,0,0,0-.627-.533l-4.082-1.857A4.977,4.977,0,0,1,10,14H9.994A4.936,4.936,0,0,1,7.963,13.567ZM10,4a5,5,0,0,1,3.077,8.941l3.457,1.57a2.487,2.487,0,0,1,.851.635,9,9,0,1,0-14.769,0,2.468,2.468,0,0,1,.85-.635l3.457-1.57A5,5,0,0,1,10,4Zm0,1a4,4,0,1,0,4,4A4,4,0,0,0,10,5Z" transform="translate(2 2)" fill="#0e142d"/>
  </g>
</svg>
