<svg width="41" height="41" viewBox="0 0 41 41" fill="none" xmlns="http://www.w3.org/2000/svg">
<circle cx="20.8686" cy="20.7377" r="19.9877" fill="#62996B"/>
<g clip-path="url(#clip0_6954_95807)">
<path d="M28.962 24.1521H27.1895C27.2842 23.8914 27.3337 23.6164 27.3359 23.3391V19.2738C27.3359 18.6269 27.0789 18.0064 26.6214 17.549C26.164 17.0916 25.5436 16.8346 24.8967 16.8346H20.0183C19.3714 16.8346 18.751 17.0916 18.2935 17.549C17.8361 18.0064 17.5791 18.6269 17.5791 19.2738V23.3391C17.5813 23.6164 17.6308 23.8914 17.7255 24.1521H16.7661C16.5504 24.1521 16.3436 24.0665 16.1911 23.914C16.0387 23.7615 15.953 23.5547 15.953 23.3391V15.2085C15.953 14.5616 15.696 13.9411 15.2386 13.4837C14.7811 13.0263 14.1607 12.7693 13.5138 12.7693H12.7008C12.4851 12.7693 12.2783 12.8549 12.1258 13.0074C11.9734 13.1599 11.8877 13.3667 11.8877 13.5823C11.8877 13.798 11.9734 14.0048 12.1258 14.1573C12.2783 14.3097 12.4851 14.3954 12.7008 14.3954H13.5138C13.7295 14.3954 13.9363 14.4811 14.0887 14.6335C14.2412 14.786 14.3269 14.9928 14.3269 15.2085V23.3391C14.3299 23.8732 14.5081 24.3915 14.8342 24.8145C15.1602 25.2375 15.6161 25.5418 16.1319 25.6807C15.9821 26.047 15.9238 26.4443 15.9618 26.8382C15.9999 27.2321 16.1332 27.6108 16.3503 27.9417C16.5674 28.2726 16.8618 28.5457 17.208 28.7374C17.5542 28.9291 17.9418 29.0338 18.3375 29.0422C18.7331 29.0507 19.1249 28.9628 19.479 28.7861C19.8331 28.6093 20.1388 28.3491 20.3699 28.0278C20.601 27.7066 20.7504 27.3339 20.8053 26.942C20.8602 26.5501 20.8189 26.1507 20.685 25.7783H23.4169C23.2832 26.1467 23.2402 26.5419 23.2916 26.9305C23.3431 27.319 23.4873 27.6894 23.7123 28.0104C23.9373 28.3314 24.2362 28.5934 24.5839 28.7743C24.9316 28.9552 25.3178 29.0496 25.7097 29.0496C26.1017 29.0496 26.4878 28.9552 26.8355 28.7743C27.1832 28.5934 27.4822 28.3314 27.7072 28.0104C27.9321 27.6894 28.0764 27.319 28.1278 26.9305C28.1793 26.5419 28.1363 26.1467 28.0026 25.7783H28.962C29.1776 25.7783 29.3844 25.6926 29.5369 25.5401C29.6894 25.3876 29.775 25.1808 29.775 24.9652C29.775 24.7496 29.6894 24.5428 29.5369 24.3903C29.3844 24.2378 29.1776 24.1521 28.962 24.1521ZM18.3922 27.4044C18.2314 27.4044 18.0742 27.3567 17.9405 27.2674C17.8068 27.178 17.7026 27.051 17.641 26.9025C17.5795 26.7539 17.5634 26.5904 17.5947 26.4327C17.6261 26.275 17.7036 26.1301 17.8173 26.0164C17.931 25.9027 18.0758 25.8253 18.2336 25.7939C18.3913 25.7625 18.5548 25.7786 18.7033 25.8402C18.8519 25.9017 18.9789 26.0059 19.0682 26.1396C19.1576 26.2733 19.2052 26.4305 19.2052 26.5913C19.2052 26.807 19.1196 27.0138 18.9671 27.1662C18.8146 27.3187 18.6078 27.4044 18.3922 27.4044ZM20.0183 24.1521C19.8027 24.1521 19.5959 24.0665 19.4434 23.914C19.2909 23.7615 19.2052 23.5547 19.2052 23.3391V19.2738C19.2052 19.0581 19.2909 18.8513 19.4434 18.6989C19.5959 18.5464 19.8027 18.4607 20.0183 18.4607H24.8967C25.1123 18.4607 25.3191 18.5464 25.4716 18.6989C25.6241 18.8513 25.7097 19.0581 25.7097 19.2738V23.3391C25.7097 23.5547 25.6241 23.7615 25.4716 23.914C25.3191 24.0665 25.1123 24.1521 24.8967 24.1521H20.0183ZM25.7097 27.4044C25.5489 27.4044 25.3917 27.3567 25.258 27.2674C25.1243 27.178 25.0201 27.051 24.9586 26.9025C24.897 26.7539 24.8809 26.5904 24.9123 26.4327C24.9437 26.275 25.0211 26.1301 25.1348 26.0164C25.2485 25.9027 25.3934 25.8253 25.5511 25.7939C25.7088 25.7625 25.8723 25.7786 26.0209 25.8402C26.1694 25.9017 26.2964 26.0059 26.3858 26.1396C26.4751 26.2733 26.5228 26.4305 26.5228 26.5913C26.5228 26.807 26.4371 27.0138 26.2847 27.1662C26.1322 27.3187 25.9254 27.4044 25.7097 27.4044Z" fill="white"/>
</g>
<defs>
<clipPath id="clip0_6954_95807">
<rect width="19.5135" height="19.5135" fill="white" transform="translate(11.0747 11.1432)"/>
</clipPath>
</defs>
</svg>
