<svg width="37" height="37" viewBox="0 0 37 37" fill="none" xmlns="http://www.w3.org/2000/svg">
<rect x="0.5" y="0.888916" width="36" height="36" rx="18" fill="#E5E5E5"/>
<g clip-path="url(#clip0_1578_127462)">
<path d="M18.5 12.2222C14.82 12.2222 11.8333 15.2088 11.8333 18.8888C11.8333 22.5688 14.82 25.5555 18.5 25.5555C22.18 25.5555 25.1667 22.5688 25.1667 18.8888C25.1667 15.2088 22.18 12.2222 18.5 12.2222ZM18.5 24.2222C15.56 24.2222 13.1667 21.8288 13.1667 18.8888C13.1667 15.9488 15.56 13.5555 18.5 13.5555C21.44 13.5555 23.8333 15.9488 23.8333 18.8888C23.8333 21.8288 21.44 24.2222 18.5 24.2222ZM21.56 15.9422L17.1667 20.3355L15.44 18.6155L14.5 19.5555L17.1667 22.2222L22.5 16.8888L21.56 15.9422Z" fill="white"/>
</g>
<defs>
<clipPath id="clip0_1578_127462">
<rect width="16" height="16" fill="white" transform="translate(10.5 10.8889)"/>
</clipPath>
</defs>
</svg>
