<svg width="37" height="37" viewBox="0 0 37 37" fill="none" xmlns="http://www.w3.org/2000/svg">
<rect x="0.5" y="0.888916" width="36" height="36" rx="18" fill="#E5E5E5"/>
<g clip-path="url(#clip0_1578_127489)">
<path d="M20.5 23.2222C18.8267 23.2222 17.38 22.2756 16.66 20.8889H20.5L21.1667 19.5556H16.22C16.1867 19.3356 16.1667 19.1156 16.1667 18.8889C16.1667 18.6622 16.1867 18.4422 16.22 18.2222H20.5L21.1667 16.8889H16.66C17.38 15.5022 18.8333 14.5556 20.5 14.5556C21.5733 14.5556 22.56 14.9489 23.32 15.6022L24.5 14.4222C23.44 13.4689 22.0333 12.8889 20.5 12.8889C17.8867 12.8889 15.6733 14.5622 14.8467 16.8889H12.5L11.8333 18.2222H14.54C14.5133 18.4422 14.5 18.6622 14.5 18.8889C14.5 19.1156 14.5133 19.3356 14.54 19.5556H12.5L11.8333 20.8889H14.8467C15.6733 23.2156 17.8867 24.8889 20.5 24.8889C22.04 24.8889 23.44 24.3089 24.5 23.3556L23.3133 22.1756C22.56 22.8289 21.58 23.2222 20.5 23.2222Z" fill="white"/>
</g>
<defs>
<clipPath id="clip0_1578_127489">
<rect width="16" height="16" fill="white" transform="translate(10.5 10.8889)"/>
</clipPath>
</defs>
</svg>
