<svg width="37" height="37" viewBox="0 0 37 37" fill="none" xmlns="http://www.w3.org/2000/svg">
<rect x="0.5" y="0.888916" width="36" height="36" rx="18" fill="#266791"/>
<g clip-path="url(#clip0_1578_127453)">
<path d="M21.8334 18.889C19.9934 18.889 18.5 20.3823 18.5 22.2223C18.5 24.0623 19.9934 25.5557 21.8334 25.5557C23.6734 25.5557 25.1667 24.0623 25.1667 22.2223C25.1667 20.3823 23.6734 18.889 21.8334 18.889ZM22.9334 23.789L21.5 22.3557V20.2223H22.1667V22.0823L23.4 23.3157L22.9334 23.789ZM22.5 12.889H20.38C20.1 12.1157 19.3667 11.5557 18.5 11.5557C17.6334 11.5557 16.9 12.1157 16.62 12.889H14.5C13.7667 12.889 13.1667 13.489 13.1667 14.2223V24.2223C13.1667 24.9557 13.7667 25.5557 14.5 25.5557H18.5734C18.18 25.1757 17.86 24.7223 17.6267 24.2223H14.5V14.2223H15.8334V16.2223H21.1667V14.2223H22.5V17.609C22.9734 17.6757 23.42 17.8157 23.8334 18.009V14.2223C23.8334 13.489 23.2334 12.889 22.5 12.889ZM18.5 14.2223C18.1334 14.2223 17.8334 13.9223 17.8334 13.5557C17.8334 13.189 18.1334 12.889 18.5 12.889C18.8667 12.889 19.1667 13.189 19.1667 13.5557C19.1667 13.9223 18.8667 14.2223 18.5 14.2223Z" fill="white"/>
</g>
<defs>
<clipPath id="clip0_1578_127453">
<rect width="16" height="16" fill="white" transform="translate(10.5 10.8889)"/>
</clipPath>
</defs>
</svg>
