<svg width="37" height="37" viewBox="0 0 37 37" fill="none" xmlns="http://www.w3.org/2000/svg">
<rect x="0.5" y="0.888916" width="36" height="36" rx="18" fill="#E5E5E5"/>
<g clip-path="url(#clip0_1578_127471)">
<path d="M23.8333 16.2223H21.8333V13.5557H12.5C11.7667 13.5557 11.1667 14.1557 11.1667 14.889V22.2223H12.5C12.5 23.329 13.3933 24.2223 14.5 24.2223C15.6067 24.2223 16.5 23.329 16.5 22.2223H20.5C20.5 23.329 21.3933 24.2223 22.5 24.2223C23.6067 24.2223 24.5 23.329 24.5 22.2223H25.8333V18.889L23.8333 16.2223ZM23.5 17.2223L24.8067 18.889H21.8333V17.2223H23.5ZM14.5 22.889C14.1333 22.889 13.8333 22.589 13.8333 22.2223C13.8333 21.8557 14.1333 21.5557 14.5 21.5557C14.8667 21.5557 15.1667 21.8557 15.1667 22.2223C15.1667 22.589 14.8667 22.889 14.5 22.889ZM15.98 20.889C15.6133 20.4823 15.0933 20.2223 14.5 20.2223C13.9067 20.2223 13.3867 20.4823 13.02 20.889H12.5V14.889H20.5V20.889H15.98ZM22.5 22.889C22.1333 22.889 21.8333 22.589 21.8333 22.2223C21.8333 21.8557 22.1333 21.5557 22.5 21.5557C22.8667 21.5557 23.1667 21.8557 23.1667 22.2223C23.1667 22.589 22.8667 22.889 22.5 22.889Z" fill="white"/>
</g>
<defs>
<clipPath id="clip0_1578_127471">
<rect width="16" height="16" fill="white" transform="translate(10.5 10.8889)"/>
</clipPath>
</defs>
</svg>
