<svg width="36" height="37" class="svg-asd" viewBox="0 0 36 37" fill="none" xmlns="http://www.w3.org/2000/svg">
<rect y="0.888916" width="36" height="36" rx="18" fill="currentColor"/>
<g clip-path="url(#clip0_1579_129380)">
<path d="M22 16.8889L21.06 15.9422L16.6667 20.3355L14.94 18.6155L14 19.5555L16.6667 22.2222L22 16.8889ZM22.6667 12.8889H19.88C19.6 12.1155 18.8667 11.5555 18 11.5555C17.1333 11.5555 16.4 12.1155 16.12 12.8889H13.3333C13.24 12.8889 13.1533 12.8955 13.0667 12.9155C12.8067 12.9689 12.5733 13.1022 12.3933 13.2822C12.2733 13.4022 12.1733 13.5489 12.1067 13.7089C12.04 13.8622 12 14.0355 12 14.2222V23.5555C12 23.7355 12.04 23.9155 12.1067 24.0755C12.1733 24.2355 12.2733 24.3755 12.3933 24.5022C12.5733 24.6822 12.8067 24.8155 13.0667 24.8689C13.1533 24.8822 13.24 24.8889 13.3333 24.8889H22.6667C23.4 24.8889 24 24.2889 24 23.5555V14.2222C24 13.4889 23.4 12.8889 22.6667 12.8889ZM18 12.7222C18.2733 12.7222 18.5 12.9489 18.5 13.2222C18.5 13.4955 18.2733 13.7222 18 13.7222C17.7267 13.7222 17.5 13.4955 17.5 13.2222C17.5 12.9489 17.7267 12.7222 18 12.7222ZM22.6667 23.5555H13.3333V14.2222H22.6667V23.5555Z" fill="white"/>
</g>
<defs>
<clipPath id="clip0_1579_129380">
<rect width="16" height="16" fill="white" transform="translate(10 10.8889)"/>
</clipPath>
</defs>
</svg>
