<svg width="37" height="37" viewBox="0 0 37 37" fill="none" xmlns="http://www.w3.org/2000/svg">
<rect x="0.5" y="0.888916" width="36" height="36" rx="18" fill="#E5E5E5"/>
<g clip-path="url(#clip0_1578_127480)">
<path d="M22.5 16.889L21.56 15.9423L17.1667 20.3357L15.44 18.6157L14.5 19.5557L17.1667 22.2223L22.5 16.889ZM23.1667 12.889H20.38C20.1 12.1157 19.3667 11.5557 18.5 11.5557C17.6333 11.5557 16.9 12.1157 16.62 12.889H13.8333C13.74 12.889 13.6533 12.8957 13.5667 12.9157C13.3067 12.969 13.0733 13.1023 12.8933 13.2823C12.7733 13.4023 12.6733 13.549 12.6067 13.709C12.54 13.8623 12.5 14.0357 12.5 14.2223V23.5557C12.5 23.7357 12.54 23.9157 12.6067 24.0757C12.6733 24.2357 12.7733 24.3757 12.8933 24.5023C13.0733 24.6823 13.3067 24.8157 13.5667 24.869C13.6533 24.8823 13.74 24.889 13.8333 24.889H23.1667C23.9 24.889 24.5 24.289 24.5 23.5557V14.2223C24.5 13.489 23.9 12.889 23.1667 12.889ZM18.5 12.7223C18.7733 12.7223 19 12.949 19 13.2223C19 13.4957 18.7733 13.7223 18.5 13.7223C18.2267 13.7223 18 13.4957 18 13.2223C18 12.949 18.2267 12.7223 18.5 12.7223ZM23.1667 23.5557H13.8333V14.2223H23.1667V23.5557Z" fill="white"/>
</g>
<defs>
<clipPath id="clip0_1578_127480">
<rect width="16" height="16" fill="white" transform="translate(10.5 10.8889)"/>
</clipPath>
</defs>
</svg>
