<svg width="36" height="37" class="svg-asd" viewBox="0 0 36 37" fill="none" xmlns="http://www.w3.org/2000/svg">
<rect y="0.888916" width="36" height="36" rx="18" fill="currentColor"/>
<g clip-path="url(#clip0_1579_129356)">
<path d="M23.3334 16.2222H21.3334V13.5555H12.0001C11.2667 13.5555 10.6667 14.1555 10.6667 14.8889V22.2222H12.0001C12.0001 23.3289 12.8934 24.2222 14.0001 24.2222C15.1067 24.2222 16.0001 23.3289 16.0001 22.2222H20.0001C20.0001 23.3289 20.8934 24.2222 22.0001 24.2222C23.1067 24.2222 24.0001 23.3289 24.0001 22.2222H25.3334V18.8889L23.3334 16.2222ZM23.0001 17.2222L24.3067 18.8889H21.3334V17.2222H23.0001ZM14.0001 22.8889C13.6334 22.8889 13.3334 22.5889 13.3334 22.2222C13.3334 21.8555 13.6334 21.5555 14.0001 21.5555C14.3667 21.5555 14.6667 21.8555 14.6667 22.2222C14.6667 22.5889 14.3667 22.8889 14.0001 22.8889ZM15.4801 20.8889C15.1134 20.4822 14.5934 20.2222 14.0001 20.2222C13.4067 20.2222 12.8867 20.4822 12.5201 20.8889H12.0001V14.8889H20.0001V20.8889H15.4801ZM22.0001 22.8889C21.6334 22.8889 21.3334 22.5889 21.3334 22.2222C21.3334 21.8555 21.6334 21.5555 22.0001 21.5555C22.3667 21.5555 22.6667 21.8555 22.6667 22.2222C22.6667 22.5889 22.3667 22.8889 22.0001 22.8889Z" fill="white"/>
</g>
<defs>
<clipPath id="clip0_1579_129356">
<rect width="16" height="16" fill="white" transform="translate(10 10.8889)"/>
</clipPath>
</defs>
</svg>
