<svg width="36" height="37" class="svg-asd" viewBox="0 0 36 37" fill="none" xmlns="http://www.w3.org/2000/svg">
<rect y="0.888916" width="36" height="36" rx="18" fill="currentColor"/>
<path d="M22.1563 18.8889V23.0452C22.1563 23.1554 22.1126 23.2611 22.0346 23.3391C21.9567 23.417 21.851 23.4608 21.7407 23.4608H13.8438C13.7336 23.4608 13.6279 23.417 13.55 23.3391C13.472 23.2611 13.4282 23.1554 13.4282 23.0452V15.1483C13.4282 15.0381 13.472 14.9323 13.55 14.8544C13.6279 14.7765 13.7336 14.7327 13.8438 14.7327H18.0001" stroke="white" stroke-linecap="round" stroke-linejoin="round"/>
<path d="M21.5328 16.8107C22.3362 16.8107 22.9875 16.1595 22.9875 15.3561C22.9875 14.5527 22.3362 13.9014 21.5328 13.9014C20.7294 13.9014 20.0781 14.5527 20.0781 15.3561C20.0781 16.1595 20.7294 16.8107 21.5328 16.8107Z" stroke="white" stroke-linecap="round" stroke-linejoin="round"/>
</svg>
