<svg width="57" height="56" class="icon-progress-bar" viewBox="0 0 37 36" fill="none" xmlns="http://www.w3.org/2000/svg">
<rect x="0.5" width="36" height="36" rx="18" fill="currentColor"/>
<g clip-path="url(#clip0_2945_38937)">
<path d="M18.4997 12.6667H13.833C12.7263 12.6667 11.833 13.5601 11.833 14.6667V20.0001C11.833 21.1067 12.7263 22.0001 13.833 22.0001L13.1663 22.6667V23.3334H13.833L15.1663 21.9801L16.4997 22.0001V18.6667H13.1663V13.9867L19.1663 14.0001V15.3334H20.4997V14.6667C20.4997 13.5601 19.6063 12.6667 18.4997 12.6667ZM13.833 19.3334C14.1997 19.3334 14.4997 19.6334 14.4997 20.0001C14.4997 20.3667 14.1997 20.6667 13.833 20.6667C13.4663 20.6667 13.1663 20.3667 13.1663 20.0001C13.1663 19.6334 13.4663 19.3334 13.833 19.3334ZM24.213 16.4401C24.1197 16.1734 23.8663 16.0001 23.5663 16.0001H18.773C18.4663 16.0001 18.2197 16.1734 18.1197 16.4401L17.1663 19.1801L17.173 22.8534C17.173 23.1067 17.3797 23.3334 17.633 23.3334H18.0463C18.2997 23.3334 18.4997 23.0801 18.4997 22.8267V22.0001H23.833V22.8267C23.833 23.0801 24.0397 23.3334 24.293 23.3334H24.6997C24.953 23.3334 25.1597 23.1067 25.1597 22.8534L25.1663 21.9401V19.1801L24.213 16.4401ZM18.773 16.6667H23.5663L24.253 18.6667H18.0863L18.773 16.6667ZM18.4997 20.6667C18.133 20.6667 17.833 20.3667 17.833 20.0001C17.833 19.6334 18.133 19.3334 18.4997 19.3334C18.8663 19.3334 19.1663 19.6334 19.1663 20.0001C19.1663 20.3667 18.8663 20.6667 18.4997 20.6667ZM23.833 20.6667C23.4663 20.6667 23.1663 20.3667 23.1663 20.0001C23.1663 19.6334 23.4663 19.3334 23.833 19.3334C24.1997 19.3334 24.4997 19.6334 24.4997 20.0001C24.4997 20.3667 24.1997 20.6667 23.833 20.6667Z" fill="white"/>
</g>
<defs>
<clipPath id="clip0_2945_38937">
<rect width="16" height="16" fill="white" transform="translate(10.5 10)"/>
</clipPath>
</defs>
</svg>
