<svg width="41" height="40" class="icon-progress-bar" viewBox="0 0 37 36" fill="none" xmlns="http://www.w3.org/2000/svg">
<rect x="0.5" width="36" height="36" rx="18" fill="currentColor"/>
<g clip-path="url(#clip0_2945_38928)">
<path d="M18.4997 11.3333C14.8197 11.3333 11.833 14.3199 11.833 17.9999C11.833 21.6799 14.8197 24.6666 18.4997 24.6666C22.1797 24.6666 25.1663 21.6799 25.1663 17.9999C25.1663 14.3199 22.1797 11.3333 18.4997 11.3333ZM18.4997 23.3333C15.5597 23.3333 13.1663 20.9399 13.1663 17.9999C13.1663 15.0599 15.5597 12.6666 18.4997 12.6666C21.4397 12.6666 23.833 15.0599 23.833 17.9999C23.833 20.9399 21.4397 23.3333 18.4997 23.3333ZM14.833 21.6666L19.8397 19.3399L22.1663 14.3333L17.1597 16.6599L14.833 21.6666ZM18.4997 17.2666C18.9063 17.2666 19.233 17.5933 19.233 17.9999C19.233 18.4066 18.9063 18.7333 18.4997 18.7333C18.093 18.7333 17.7663 18.4066 17.7663 17.9999C17.7663 17.5933 18.093 17.2666 18.4997 17.2666Z" fill="white"/>
</g>
<defs>
<clipPath id="clip0_2945_38928">
<rect width="16" height="16" fill="white" transform="translate(10.5 10)"/>
</clipPath>
</defs>
</svg>
