<svg width="29" height="29" viewBox="0 0 29 29" fill="none" xmlns="http://www.w3.org/2000/svg">
<mask id="mask0_2017_16580" style="mask-type:alpha" maskUnits="userSpaceOnUse" x="0" y="0" width="29" height="29">
<circle cx="14.7778" cy="14.2222" r="14.2222" fill="#D9D9D9"/>
</mask>
<g mask="url(#mask0_2017_16580)">
<rect x="0.555557" width="28.4444" height="28.4444" fill="#FFC8E6"/>
<path d="M10.9774 17.5341V11.7727H12.1237V17.5341H10.9774ZM8.67203 15.2244V14.0824H14.4334V15.2244H8.67203ZM16.0357 19V18.0455L18.9888 14.9858C19.3041 14.6534 19.5641 14.3622 19.7686 14.1122C19.976 13.8594 20.1308 13.6193 20.2331 13.392C20.3354 13.1648 20.3865 12.9233 20.3865 12.6676C20.3865 12.3778 20.3183 12.1278 20.182 11.9176C20.0456 11.7045 19.8595 11.5412 19.6237 11.4276C19.3879 11.3111 19.1223 11.2528 18.8269 11.2528C18.5144 11.2528 18.2416 11.3168 18.0087 11.4446C17.7757 11.5724 17.5968 11.7528 17.4718 11.9858C17.3468 12.2187 17.2843 12.4915 17.2843 12.804H16.0271C16.0271 12.2727 16.1493 11.8082 16.3936 11.4105C16.6379 11.0128 16.9732 10.7045 17.3993 10.4858C17.8254 10.2642 18.3098 10.1534 18.8524 10.1534C19.4007 10.1534 19.8837 10.2628 20.3013 10.4815C20.7218 10.6974 21.0499 10.9929 21.2857 11.3679C21.5215 11.7401 21.6394 12.1605 21.6394 12.6293C21.6394 12.9531 21.5783 13.2699 21.4561 13.5795C21.3368 13.8892 21.128 14.2344 20.8297 14.6151C20.5314 14.9929 20.1166 15.4517 19.5854 15.9915L17.851 17.8068V17.8707H21.78V19H16.0357Z" fill="#99626C"/>
</g>
</svg>
