<svg width="29" height="29" viewBox="0 0 29 29" fill="none" xmlns="http://www.w3.org/2000/svg">
<mask id="mask0_2017_16572" style="mask-type:alpha" maskUnits="userSpaceOnUse" x="0" y="0" width="29" height="29">
<circle cx="14.6667" cy="14.2222" r="14.2222" fill="#D9D9D9"/>
</mask>
<g mask="url(#mask0_2017_16572)">
<rect x="0.444443" width="28.4444" height="28.4444" fill="#B7FFBE"/>
<path d="M11.5361 19V10.2727H14.6469C15.323 10.2727 15.8841 10.3892 16.3301 10.6222C16.779 10.8551 17.1142 11.1776 17.3358 11.5895C17.5574 11.9986 17.6682 12.4716 17.6682 13.0085C17.6682 13.5426 17.5559 14.0128 17.3315 14.419C17.1099 14.8224 16.7747 15.1364 16.3258 15.3608C15.8798 15.5852 15.3187 15.6974 14.6426 15.6974H12.2861V14.5639H14.5233C14.9494 14.5639 15.296 14.5028 15.5631 14.3807C15.8329 14.2585 16.0304 14.081 16.1554 13.848C16.2804 13.6151 16.3429 13.3352 16.3429 13.0085C16.3429 12.679 16.279 12.3935 16.1511 12.152C16.0261 11.9105 15.8287 11.7259 15.5588 11.598C15.2917 11.4673 14.9409 11.402 14.5062 11.402H12.8528V19H11.5361ZM15.8443 15.0625L18.0006 19H16.5006L14.3869 15.0625H15.8443Z" fill="#62996B"/>
</g>
</svg>
