<svg width="29" height="29" viewBox="0 0 29 29" fill="none" xmlns="http://www.w3.org/2000/svg">
<mask id="mask0_2017_16563" style="mask-type:alpha" maskUnits="userSpaceOnUse" x="0" y="0" width="29" height="29">
<circle cx="14.5556" cy="14.2222" r="14.2222" fill="#D9D9D9"/>
</mask>
<g mask="url(#mask0_2017_16563)">
<rect x="0.333336" width="28.4444" height="28.4444" fill="#B1E0FF"/>
<path fill-rule="evenodd" clip-rule="evenodd" d="M11.2202 10.6906C11.2202 8.84851 12.7135 7.35522 14.5556 7.35522C16.3976 7.35522 17.8909 8.84851 17.8909 10.6906C17.8909 12.5326 16.3976 14.0259 14.5556 14.0259C12.7135 14.0259 11.2202 12.5326 11.2202 10.6906ZM14.5556 8.5324C13.3636 8.5324 12.3974 9.49864 12.3974 10.6906C12.3974 11.8825 13.3636 12.8487 14.5556 12.8487C15.7475 12.8487 16.7137 11.8825 16.7137 10.6906C16.7137 9.49864 15.7475 8.5324 14.5556 8.5324Z" fill="#3F9AD5"/>
<path fill-rule="evenodd" clip-rule="evenodd" d="M11.4164 16.3802C10.4412 16.3802 9.65065 17.1708 9.65065 18.146V19.0786C9.65065 19.0928 9.66094 19.1049 9.67496 19.1072C12.9073 19.6349 16.2038 19.6349 19.4362 19.1072C19.4502 19.1049 19.4605 19.0928 19.4605 19.0786V18.146C19.4605 17.1708 18.6699 16.3802 17.6947 16.3802H17.4272C17.4065 16.3802 17.386 16.3835 17.3663 16.3899L16.687 16.6117C15.302 17.064 13.8091 17.064 12.4241 16.6117L11.7448 16.3899C11.7252 16.3835 11.7046 16.3802 11.6839 16.3802H11.4164ZM8.47348 18.146C8.47348 16.5207 9.79108 15.2031 11.4164 15.2031H11.6839C11.8287 15.2031 11.9726 15.226 12.1102 15.2709L12.7895 15.4927C13.937 15.8674 15.1741 15.8674 16.3216 15.4927L17.0009 15.2709C17.1385 15.226 17.2824 15.2031 17.4272 15.2031H17.6947C19.32 15.2031 20.6376 16.5207 20.6376 18.146V19.0786C20.6376 19.6697 20.2092 20.1737 19.6258 20.269C16.2679 20.8172 12.8432 20.8172 9.48528 20.269C8.90188 20.1737 8.47348 19.6697 8.47348 19.0786V18.146Z" fill="#3F9AD5"/>
</g>
</svg>
